<svg width="32" height="32" viewBox="0 0 32 32" fill="none" xmlns="http://www.w3.org/2000/svg">
<path d="M22.08 14.88C20.8 14.72 19.68 14.24 18.88 13.28C18.08 12.32 17.44 11.2 17.28 10.08C16.64 9.92 16.16 9.6 15.68 9.12C15.04 8.32 14.72 7.52 14.56 6.72L13.12 8.16L11.84 7.04C10.88 5.92 9.12003 5.92 8.00003 7.04L4.00003 11.04C2.88003 12.16 2.88003 13.92 4.00003 15.04L5.12003 16.32L4.16003 17.28C3.04003 18.4 3.04003 20.16 4.16003 21.28L11.04 28.16C12.16 29.28 13.92 29.28 14.88 28.16L25.12 17.76C24.32 17.6 23.52 17.28 22.88 16.64C22.72 16 22.4 15.36 22.08 14.88ZM5.76003 12.16L8.96003 8.96C9.44003 8.48 10.24 8.48 10.56 8.96L11.36 9.76L6.72003 14.72L5.76003 13.76C5.44003 13.28 5.44003 12.64 5.76003 12.16ZM6.72003 19.68C6.24003 19.2 6.24003 18.56 6.72003 18.24L13.6 11.2C14.08 10.72 14.72 10.72 15.04 11.2C15.52 11.68 15.52 12.32 15.04 12.64L8.16003 19.52C7.68003 20 7.04003 20 6.72003 19.68ZM9.60003 22.56C9.12003 22.08 9.12003 21.44 9.60003 21.12L16.48 14.24C16.96 13.76 17.6 13.76 17.92 14.24C18.4 14.72 18.4 15.36 17.92 15.68L11.04 22.56C10.72 23.04 10.08 23.04 9.60003 22.56ZM20.96 18.56L14.08 25.6C13.6 26.08 12.96 26.08 12.64 25.6C12.16 25.12 12.16 24.48 12.64 24.16L19.52 17.28C20 16.8 20.64 16.8 20.96 17.28C21.28 17.44 21.28 18.24 20.96 18.56ZM28 11.52C27.68 11.2 27.2 10.88 26.88 10.88C27.52 9.28 27.2 7.36 25.92 6.24C24.64 4.96 22.88 4.64 21.28 5.28C21.12 4.8 20.8 4.32 20.48 4C19.36 2.88 17.6 2.88 16.64 4C15.52 5.12 15.52 6.88 16.64 8C17.12 8.48 17.92 8.8 18.56 8.8C18.4 10.08 18.88 11.36 19.84 12.32C20.8 13.28 22.08 13.6 23.36 13.6C23.36 14.4 23.68 15.04 24.16 15.52C25.28 16.64 27.04 16.64 28 15.52C29.12 14.4 29.12 12.64 28 11.52Z" fill="#E4A951"/>
</svg>
