<svg width="32" height="32" viewBox="0 0 32 32" fill="none" xmlns="http://www.w3.org/2000/svg">
<path d="M10.6667 2.66666H21.3334M12 2.66666V6.38532C12 7.43837 11.6882 8.46785 11.104 9.34399L10.2294 10.656C9.64491 11.5325 9.33314 12.5625 9.33337 13.616V26.6667C9.33337 27.3739 9.61433 28.0522 10.1144 28.5523C10.6145 29.0524 11.2928 29.3333 12 29.3333H20C20.7073 29.3333 21.3856 29.0524 21.8857 28.5523C22.3858 28.0522 22.6667 27.3739 22.6667 26.6667V13.6147C22.6667 12.5616 22.3549 11.5321 21.7707 10.656L20.896 9.34399C20.3116 8.46747 19.9998 7.4375 20 6.38399V2.66666" stroke="#85B6FF" stroke-width="2.66667" stroke-linecap="round" stroke-linejoin="round"/>
<path d="M9.33337 20C10.389 19.5577 11.5222 19.33 12.6667 19.33C13.8113 19.33 14.9444 19.5577 16 20C17.0557 20.4423 18.1888 20.67 19.3334 20.67C20.4779 20.67 21.611 20.4423 22.6667 20" stroke="#85B6FF" stroke-width="2.66667" stroke-linecap="round" stroke-linejoin="round"/>
</svg>
