<svg width="32" height="32" viewBox="0 0 32 32" fill="none" xmlns="http://www.w3.org/2000/svg">
<path d="M9.7875 21.4188L10.0063 22.5875L9.03125 24.4438L9.0375 24.6063C9.10625 27.8125 10.05 29.3125 11.025 29.875C11.8812 30.4375 12.8312 30.3125 13.5437 30C13.95 30.5 14.7 31.0625 16 31.0625C17.3 31.0625 18.05 30.5 18.4562 30C19.1687 30.3125 20.1188 30.4375 20.975 29.875C21.95 29.3125 22.8937 27.8125 22.9625 24.6063L22.9688 24.4438L21.9937 22.5875L22.2125 21.4188H20.8875L20.6313 22.7875L21.6562 24.7437C21.625 25.75 21.5063 26.5625 21.3188 27.1875C21.0563 28.0625 20.675 28.5625 20.225 28.8125C19.65 29.125 19.0188 28.9375 18.6688 28.625L17.975 28.0625L17.6437 28.875C17.6437 28.875 17.2563 29.75 16 29.75C14.7437 29.75 14.3562 28.875 14.3562 28.875L14.025 28.0625L13.3313 28.625C12.4625 29.375 10.4875 29.3125 10.3438 24.7437L11.3687 22.7875L11.1125 21.4188H9.7875ZM15.0688 24.6875C15.575 24.6875 15.9937 25.125 15.9937 25.625C15.9937 26.125 15.575 26.5625 15.0688 26.5625C14.5563 26.5625 14.1438 26.125 14.1438 25.625C14.1438 25.125 14.5563 24.6875 15.0688 24.6875ZM18.9125 23.3188C18.7563 23.8938 18.1687 24.2312 17.5938 24.0812C17.0188 23.925 16.675 23.3313 16.8312 22.7625C16.9875 22.1875 17.575 21.8438 18.15 22C18.725 22.15 19.0688 22.7438 18.9125 23.3188ZM14.0312 22.125C14.3938 22.125 14.6875 22.4187 14.6875 22.7812C14.6875 23.1438 14.3938 23.4375 14.0312 23.4375C13.6687 23.4375 13.375 23.1438 13.375 22.7812C13.375 22.4187 13.6687 22.125 14.0312 22.125ZM22.5625 14.875H9.3125L9.675 20.375H22.2L22.5625 14.875ZM9.5375 13.8313H10.8375C10.8812 11.025 12.2687 10.2 13.3687 9.25625C14.1875 8.55 14.875 7.79375 15.05 6.4625H16.95C17.125 7.79375 17.8125 8.55 18.6313 9.25625C19.7313 10.2 21.1188 11.025 21.1625 13.8313H22.4625C22.4312 10.9688 21.2688 9.775 20.1063 8.79375C19.1875 8.0125 18.2187 7.4375 18.2125 5.8125V5.1625H13.7875V5.8125C13.7813 7.4375 12.8125 8.0125 11.8938 8.79375C10.7313 9.775 9.56875 10.9688 9.5375 13.8313ZM14.9187 11.325C15.3437 11.325 15.6938 11.675 15.6938 12.1C15.6938 12.5313 15.3437 12.875 14.9187 12.875C14.4937 12.875 14.1438 12.5313 14.1438 12.1C14.1438 11.675 14.4937 11.325 14.9187 11.325ZM17.2188 9.875C17.5813 9.875 17.875 10.1687 17.875 10.5312C17.875 10.8938 17.5813 11.1875 17.2188 11.1875C16.8562 11.1875 16.5625 10.8938 16.5625 10.5312C16.5625 10.1687 16.8562 9.875 17.2188 9.875ZM18.875 3.35625H13.125V4.39375H18.875V3.35625ZM13.7 1.03125H18.3C18.4562 1.03125 18.6 1.09375 18.7062 1.2C18.8125 1.30625 18.875 1.45 18.875 1.60625V2.59375H13.125V1.60625C13.125 1.45 13.1875 1.30625 13.2937 1.2C13.4 1.09375 13.5437 1.03125 13.7 1.03125Z" fill="#9747FF"/>
</svg>
