<svg width="32" height="33" viewBox="0 0 32 33" fill="none" xmlns="http://www.w3.org/2000/svg">
<g id="verdure">
<g id="Group">
<path id="Vector" d="M21.3333 5.76801C22.3333 5.50001 23.5533 5.57468 24.2933 5.76801C25.9607 6.20668 27.1767 6.96001 27.904 8.00801C28.746 9.21934 28.8913 10.766 28.3387 12.604C27.206 16.364 22.6053 18.6973 22.3333 18.8333C22.3567 19.5427 22.52 20.6667 22.7687 21.412C23.12 22.462 23.444 23.5373 23.222 24.6853C23 25.8333 22.4527 26.7013 21.7107 27.2913C21.0293 27.8373 20.186 28.114 19.206 28.114C18.8558 28.1127 18.5087 28.0791 18.1647 28.0133M8.66668 18.1667C8.66668 18.1667 4.79335 16.3627 3.66201 12.604C3.10868 10.7667 3.25468 9.22134 4.09601 8.00801C4.82468 6.96068 6.03868 6.20801 7.70668 5.76801C8.44735 5.57468 9.15601 5.47534 9.81468 5.47534M9.00001 18.5C9.33335 19.1667 9.04535 20.364 8.69335 21.4147C8.34201 22.4653 7.97935 23.5493 8.24001 24.688C8.50001 25.8253 9.00868 26.7033 9.74935 27.2933C10.432 27.8387 11.02 28.1667 12 28.1667C12.3487 28.1653 13.3333 27.8333 13.3333 27.8333" stroke="#4ECB71" stroke-width="2.66667" stroke-linecap="round" stroke-linejoin="round"/>
<path id="Vector_2" d="M15.6667 3.16669C19.1647 3.16669 22 4.92869 22 10.0834C22 15.238 15.6667 21.8334 15.6667 21.8334C15.6667 21.8334 9.33334 15.238 9.33334 10.0834C9.33334 4.92802 12.1687 3.16669 15.6667 3.16669Z" stroke="#4ECB71" stroke-width="2.66667" stroke-linecap="round" stroke-linejoin="round"/>
<path id="Vector_3" d="M16 28.6527C14.66 28.6527 13.52 28.2113 12.7533 27.5393C11.8687 26.762 11.418 25.6553 11.418 24.2513C11.418 23.0807 12.0513 22.104 12.6627 21.158C13.0973 20.4867 13.6987 19.1647 13.6987 19.1647C13.6987 19.1647 14.0153 18.074 13.9633 17.3647C13.8667 16.0553 12.5953 15.0693 12.3887 14.3933C12.1387 13.5533 12.2 13.0413 12.5787 12.7853C12.6953 12.7053 13.142 12.6787 13.142 12.6787C13.142 12.6787 13.058 11.448 13.1107 11.042C13.174 10.5553 13.428 9.86067 14.0253 9.81C14.4387 9.77467 14.7653 9.83667 14.9773 10.2813C15.0453 10.4253 15.0927 10.5993 15.1587 10.8407C15.381 11.6447 15.661 12.4316 15.9967 13.1953C16.333 12.4317 16.6137 11.6448 16.8367 10.8407C16.9033 10.6 16.95 10.4253 17.0187 10.2807C17.2307 9.836 17.5587 9.77534 17.972 9.81067C18.4753 9.85467 18.822 10.5567 18.8853 11.042C18.9387 11.448 18.928 11.9887 18.854 12.678H18.8853C19.0287 12.678 19.3027 12.7047 19.42 12.7847C19.7993 13.0407 19.8213 13.7973 19.6087 14.3933C19.3333 15.1667 18.1353 15.922 18 17.1667C17.914 17.9513 18.0633 18.4133 18.3007 19.1653C18.5647 20.002 18.9007 20.4873 19.3367 21.158C19.9487 22.1033 20.5813 23.0813 20.5813 24.2513C20.5813 25.6553 20.132 26.7613 19.2453 27.5387C18.4773 28.2107 17.34 28.652 16 28.6527Z" stroke="#4ECB71" stroke-width="2.66667" stroke-linecap="round" stroke-linejoin="round"/>
</g>
</g>
</svg>
