<svg width="32" height="32" viewBox="0 0 32 32" fill="none" xmlns="http://www.w3.org/2000/svg">
<path d="M2.66663 29.3333L21.3333 10.6667M21.3333 10.6667H24C25.4144 10.6667 26.771 10.1048 27.7712 9.10456C28.7714 8.10437 29.3333 6.74781 29.3333 5.33332V2.66666H26.6666C25.2521 2.66666 23.8956 3.22856 22.8954 4.22875C21.8952 5.22895 21.3333 6.5855 21.3333 7.99999V10.6667ZM4.62663 16.7067L6.66663 14.6667L8.70663 16.7067C9.57783 17.5813 10.067 18.7655 10.067 20C10.067 21.2345 9.57783 22.4187 8.70663 23.2933L6.66663 25.3333L4.62663 23.2933C3.75542 22.4187 3.26628 21.2345 3.26628 20C3.26628 18.7655 3.75542 17.5813 4.62663 16.7067ZM9.95996 11.3733L12 9.33332L14.04 11.3733C14.9112 12.248 15.4003 13.4322 15.4003 14.6667C15.4003 15.9012 14.9112 17.0854 14.04 17.96L12 20L9.95996 17.96C9.08876 17.0854 8.59961 15.9012 8.59961 14.6667C8.59961 13.4322 9.08876 12.248 9.95996 11.3733ZM15.2933 6.03999L17.3333 3.99999L19.3733 6.03999C20.2445 6.91463 20.7336 8.09883 20.7336 9.33332C20.7336 10.5678 20.2445 11.752 19.3733 12.6267L17.3333 14.6667L15.2933 12.6267C14.4221 11.752 13.9329 10.5678 13.9329 9.33332C13.9329 8.09883 14.4221 6.91463 15.2933 6.03999Z" stroke="#FFD233" stroke-width="2.66667" stroke-linecap="round" stroke-linejoin="round"/>
<path d="M15.2933 23.2933L17.3333 25.3333L15.2933 27.3733C14.4187 28.2445 13.2345 28.7337 12 28.7337C10.7655 28.7337 9.58126 28.2445 8.70663 27.3733L6.66663 25.3333L8.70663 23.2933C9.58126 22.4221 10.7655 21.933 12 21.933C13.2345 21.933 14.4187 22.4221 15.2933 23.2933ZM20.6266 17.96L22.6666 20L20.6266 22.04C19.752 22.9112 18.5678 23.4003 17.3333 23.4003C16.0988 23.4003 14.9146 22.9112 14.04 22.04L12 20L14.04 17.96C14.9146 17.0888 16.0988 16.5996 17.3333 16.5996C18.5678 16.5996 19.752 17.0888 20.6266 17.96ZM25.96 12.6266L28 14.6666L25.96 16.7066C25.0853 17.5778 23.9011 18.067 22.6666 18.067C21.4321 18.067 20.2479 17.5778 19.3733 16.7066L17.3333 14.6666L19.3733 12.6266C20.2479 11.7554 21.4321 11.2663 22.6666 11.2663C23.9011 11.2663 25.0853 11.7554 25.96 12.6266Z" stroke="#FFD233" stroke-width="2.66667" stroke-linecap="round" stroke-linejoin="round"/>
</svg>
