<?xml version="1.0" encoding="UTF-8"?>
<svg version="1.1" viewBox="0 0 1552 1240" width="388" height="310" xmlns="http://www.w3.org/2000/svg">
<path transform="translate(1040,23)" d="m0 0 4 1 2 9 2 32v48l-3 29-5 28-8 26-8 19-8 16-9 15-10 14-8 10-11 12-12 11-17 12-17 10-16 7-14 5-21 4-8 1h-26l-16-1-2 5-14 29-11 19-11 18-1 2 8-3 21-10 25-9 19-5 26-5 21-2h23l28 2 11 2v-22l2-18 6-21 11-28 8-15 2-2 4 1 19 14 3 1 1-6 10-24 9-15 8-10 11-12 15-12 18-10 16-6 19-5 7-1h42l19 4 17 6 19 10 12 9 9-1 12-4 15-3 5 1-1 20-3 24-6 26-7 21-12 25-11 17-9 11-9 10-7 7-14 11-13 8-15 7-15 5-20 3h-20l-19-2v46l2 6 14 14 9 11 10 13 12 19 12 22 11 26 10 30 6 23 6 32 3 30 1 27v22l-1 24-4 33-7 33-8 28-10 28-12 27-13 25-9 15-10 15-13 18-9 12-9 11-12 14-32 32-8 7-14 12-13 10-21 14-24 14-24 12-24 10-28 10-34 9-49 11h-5v2h8l20 2 129 4 60 4 45 5 32 5 28 6 9 4 3 3-1 5-10 5-15 4-27 5-36 5-54 5-60 4-97 4-31 1h-103l-109-4-41-2-55-4-47-5-47-7-21-6-8-4-4-5 5-4 21-7 25-5 30-4 53-5 35-2 115-4 34-3 7-1-62-15-26-8-28-11-28-14-23-13-18-11-14-10-12-9-14-12-12-11-17-16-12-13-9-10-13-17-14-19-13-21-10-18-8-16-9-19-11-28-12-36-7-30-4-31-2-32v-21l2-28 4-26 6-24 10-28 13-29 11-23 2-8v-20l-1-15-14 2h-16l-14-2-17-5-15-8-14-10-13-12-9-10-11-15-8-14-8-20-4-14-4-22-2-21 2-3 10 2 17 5 6-2 15-10 16-8 15-5 14-3 7-1h29l18 3 18 6 16 8 11 8 12 11 9 11 7 11 5 10 11-1 5 1 10-4 17-8-1-4-15-15-7-8-8-9-10-15-13-23-10-23-6-18-6-29-2-15-1-16v-52l1-20 1-3 13 1 83 16 30 7 27 8 19 8 16 8 15 10 14 11 15 14 10 11 12 16 13 23 9 19 8 22 2 4v-16l-4-46-4-22-9-21-9-16-8-12-9-11-10-12 2-4 5-4 18-10 15-7 19-6h7l8 9 12 22 11 25 9 23 3 7 3-4 9-25 11-23 13-22 11-13 7-8 7-7 11-9 13-10 15-10 22-12 21-9 19-7 28-8 39-9 42-9z" fill="#072536"/>
<path transform="translate(913,406)" d="m0 0h36l24 3 10 3 6 10 6 9 12 13 10 7 26 12 15 4 13 4 17 9 13 12 8 8 10 13 10 16 10 21 8 26 5 26 2 21v33l-1 3-21 7-49 14-25 7-31 9-32 10-35 10-43 11-39 11-75 21-35 10-3 2-7-1-12-18-9-16-10-22-6-25-5-26-2-17v-32l4-28 7-31 8-20 12-23 13-19 9-12 11-12 10-9 11-9 13-11 15-9 19-9 19-7 25-6z" fill="#FB7702"/>
<path transform="translate(537,492)" d="m0 0h22l19 3 20 6 21 8 15 6 13 3h32l20-3 5-1-3 9-5 12-2 1h-43l-21-3-5-1-2 1 2 10 7 11 3 10 2 19 1 19-2 31-4 25-8 30-9 27-9 21-9 19-8 14-10 15-6 8-5 5-7 6-2 4h2v2h9l1 2-31 5-25 2-22 1h-13l-44-2-36-6-16-5-4-2-6-24-5-29-2-28v-14l1-23 1-1 2-21 4-20 10-30 10-24 6-11 10-15 7-10 21-7 9-5h3l2-4 5-4 9-11 8-13 6-5 21-7 26-5z" fill="#F81149"/>
<path transform="translate(1169,693)" d="m0 0h6v32l-1 21-35 12-95 29-23 7-54 15-89 26-104 30-24 6-21 6-35 8-27 6-32 8-33 7-37 6-26 3-17 1h-42l-28-2-15-2-13-2-10-2-21-5-3-2-5-10v-5h-2l-5-15-3-8-5-13-3-11 10 2 18 5 12 2 8 2 31 4 32 2h26l35-2 38-5 21-4 24-4 16-4 16-3 11-3 24-5 13-4 21-5 15-4 17-5 27-6 19-4 6-2 23-6 15-4 14-4 22-6 9-3 14-4 25-7 12-3 12-4 16-4 20-6 9-4 15-3 8-3 26-8 14-3 6-3 16-4 11-2 16-5 24-6 14-4 8-3z" fill="#297A12"/>
<path transform="translate(679,1136)" d="m0 0 10 1 29 5 8 1 19 1h42l17-1 29-5h5l-4 2-14 3h-5v2h8l20 2 129 4 60 4 45 5 32 5 28 6 9 4 3 3-1 5-10 5-15 4-27 5-36 5-54 5-60 4-97 4-31 1h-103l-109-4-41-2-55-4-47-5-47-7-21-6-8-4-4-5 5-4 21-7 25-5 30-4 53-5 35-2 115-4 34-3 7-1-29-7z" fill="#72BEC4"/>
<path transform="translate(754,906)" d="m0 0h8l8 7 8 9 10 16 8 17 5 19 2 13v13l-3 18-5 18-6 14-8 13-11 12-11 10-14 9-12 6-17 5-8 1h-29l-15-3-18-6-21-11-10-7-11-8-18-18-9-14-6-14-5-19-1-7v-20l3-18 4-12 2-3 9-2h11l15-4 26-5 28-6 18-5 29-7 27-7z" fill="#B70839"/>
<path transform="translate(455,172)" d="m0 0 7 1 16 4 47 9 26 7 22 10 36 21 13 11 10 9 7 8v2h2l10 18 6 12 4 10 5 14 4 19 1 11v33h-2l-3-4v-3h-2l-4-6-7 1-3-1-1 3 1 7 4 2 6 10 10 12v3l3 1 1 3 10 10 8 11 3 8-4-2-7-7-3-4v-2l-4-2-5-6v-2l-3-1-2-4-4-3-2-4-5-5v-3l-3-1v-3l-3-1-1-3-31-1-28-3-29-1-12-2-14-7-3-2v-2l-4-1v-2l-4-1v-2l-5-2v-2l-4-2-13-13-11-14-8-11-4-9-4-8-3-8-8-26-6-23-2-22-1-3z" fill="#529F10"/>
<path transform="translate(1e3 65)" d="m0 0h3l-2 4-2 2-3 9 3-1-1 12-2 16-3 8-8 28-3 8h-2l-2 9-4 9-2 4h-2l-2 7-7 10-1 3h-2v3h-2l-1 4-5 5-3 5-8 7-11 11-16 14-5 4h-2l-1 3h-3v2l-11 7h-2v2l-11 6-13 8-17 8-15 5-22 4 1-5 10-17 11-16 13-18 10-13 10-11 9-11 7-9h2l2-5 1-2-16 10-9 5-9 7-9 8-7 8-11 14-7 11-4 6-2 5-8 15-4 10-3 7h-2v2h-2l-1-13v-30l2-10 2-14 5-15 4-13 5-13 9-16 7-10 10-13 9-10 11-9 12-10 15-10 13-8 15-7 22-8 41-11z" fill="#8CC815"/>
<path transform="translate(986,746)" d="m0 0h3l-1 3-9 2-7 3h-6v2l-6 2h-7v2l-29 9-25 7-19 6-53 15-57 14-21 6-15 4-8 4h-3v2l-9 2-6 4 6 1 4 4 10 5 7 1 7-1 16-1 6-2h6l5 1h5l-2 2-27 8-10 2-9 3-32 9-16 4-25 6-17 4-15 3-13 2-16 3-11 2-13 1-16 4h14l11-1h10l3 1 16-1 35-3 3-2 7-1 4 2v2l-9 4-36 8-26 5-33 5-18 2-17 1h-42l-28-2-15-2-13-2-10-2-21-5-3-2-5-10v-5h-2l-5-15-3-8-5-13-3-11 10 2 18 5 12 2 8 2 31 4 32 2h26l35-2 38-5 21-4 24-4 16-4 16-3 11-3 24-5 13-4 21-5 15-4 17-5 27-6 19-4 6-2 23-6 15-4 14-4 22-6 9-3 14-4 25-7 12-3 12-4 16-4z" fill="#8CC814"/>
<path transform="translate(624,531)" d="m0 0h5l1 1 21 3h44l-3 10-8 23-4 18-4 24-1 13v19l4 39 4 19 7 23 11 25 8 15 8 17-3 3-22 6-37 8-27 5-34 7-52 8-36 3h-37l-22-2v-1h12l21 1h13l35-2 18-2 23-4h-6l-2-1v-2h-2l2-5 8-7 2-3h2l2-4 9-13 7-11 8-15 12-26 6-17 9-28 6-26 3-21 2-29-1-22-2-16-3-10-7-11-2-10z" fill="#B70839"/>
<path transform="translate(695,922)" d="m0 0h5v3l1 5 6 18 1 19v12l-4 13-5 10-12 16-8 8-11 8h-2v2l-10 5-11 3-5 1-13 2h-21l-3 1v2l5 2 4 3v3h2l-2 4 4 2 2 6 2 2v4h3l1 8-8-4-13-10-17-17-9-14-6-14-5-19-1-7v-20l3-18 4-12 2-3 9-2h11l15-4 26-5 28-6 14-4 14-2z" fill="#F81349"/>
<path transform="translate(455,172)" d="m0 0 7 1 16 4 47 9 26 7 22 10 36 21 13 11 6 5 4 7 3 3-1 2-6-5-10-4-4-4-5-3-4-1 1 4 4 5 2 5-1 5-5 4-3 6-3 2-3 6-4 1h-7v2l-2 2-3 1v5l1 5-7 9-1 5-2 1-2 14-2 5v1l2 10-3 3-12-8-8-7-11-9-10-9-8-7-15-16-11-15-9-15-5-11-8-23-5-15-2-1-1 10 2 21 1 8 1 3 5 19 3 9 1 8-2 2-3-5-8-27-4-15-2-22-1-3z" fill="#8CC815"/>
<path transform="translate(1046,467)" d="m0 0 6 1 16 5 7 2v2l5 1 6 4 5 1 8 7 10 10 10 13 10 16 10 21 8 26 5 26 2 21v33l-1 3-21 7-49 14-25 7-5-1-8 2h-11v-4l10-12 9-13 10-19 7-16 9-24 5-6 3-21v-8l-5-20-7-19-9-21-8-17-6-11-6-8z" fill="#D2360C"/>
<path transform="translate(1049,820)" d="m0 0h3l-2 4-13 18-26 39-10 14-11 17-6 12-8 14-8 13-10 16-6 9-5 8-6 10-3 6h-2l-2 5-1 3h-2l-2 6-6 9-1 3h-2l-2 5-5 9-6 9-8 8-3 5-7 6-4 2-13 1-10 4-17 4-10 6-3-1 6-11 10-17 16-24 13-22 11-17 8-17 14-20 12-20 15-24 13-21 11-16 11-18 9-17 24-7 14-4 18-6z" fill="#53A010"/>
<path transform="translate(1137,797)" d="m0 0h3l-1 4-7 11-3 5-3 6-8 14-7 12-4 8h-2l-1 5-3 6h-2l-1 4-11 18-5 9-6 9-7 13-4 6-6 11-8 13-5 6-5 10-5 7-4 4-4 7-2 1-1 3-3 3-2 4-6 5-6 8-13 13-7 6h-2l-1 3-13 10-14 8h-2l-1 5h-2v2h-2v2l-9 1-4 7-3 3h-2v3l-6 4h-3l2-5 5-10 1-4 2-1 1-3 4-1 2-4 6-9 4-8h2l2-6 5-9 5-7 5-9 6-10 3-7 7-12 8-11 6-10 8-13 9-14 5-9 7-11 8-13 10-15 8-13 4-9 3-6h2l2-6 4-6 2-1 3-9 5-10 2-1 1-4 21-6 17-3z" fill="#529F10"/>
<path transform="translate(522,528)" d="m0 0h12l12 5 8 7 3 5 1 4v8l-4 11-7 8-10 9-8 7-8 8-11 15-9 16-6 12-12 37-9 14-8 5-13 1-9-3-4-2-8-10-5-12-1-4v-13l5-23 4-17 7-13 6-11 5-10 7-11 12-14 8-8 18-12 13-6z" fill="#FEFEFD"/>
<path transform="translate(1006,64)" d="m0 0h5l2 6v27l-2 34-5 30-5 18-8 21-1 2h-2l-1 6h-2l-3 9-3 5h-2l-1 5-9 12-11 13-7 7-4 3h-2l-1 3-7 5h-2v2l-9 6-11 6-9 4-12 5-14 4-11 2h-14l-19-2-23-4-2 6-8 16-12 20-4 5-3 5-7 11-5 6-1-3 10-18h2l2-5 9-17 5-8 7-14 1-5-3-2v-3h-2l-1 3-1-4 5-9 3-7 11-22 7-10 8-11 9-10 4-5 8-7 10-8 18-10 8-5-2 4-3 5h-2l-2 4-11 13-9 10-13 17-13 18-14 21-8 14-1 3 10-3 16-3 18-7 17-9 7-5 6-3 4-1v-2l11-7h2v-2l3-1 5-5 5-4h2l1-3 6-4 22-22h2l2-5 4-5h2l1-4h2v-3h2l1-4 7-11 2-5h2l3-10 3-5 2-7h2l1-5 8-27 3-10 1-2 3-22v-5h-2l2-9 4-4z" fill="#358712"/>
<path transform="translate(1080,805)" d="m0 0 6 1v3h-3v5l-3 1-2 6-4 8-2 6h-2l-1-2-5 1-3 1v3h-2v2h-2v3h-2v3h-3l1 3h-3l-1 4h-2l-1 4-3 1v3l-4 1v4l-8 7-4 2-2 5-5 10-1 4-5 3-3 7v2h-2v5l-2 3h-2l-1 5-1 2h-2l-1 4h-2l-3 9-3 4-2 4-3 1-2 6-1 2h-2l-2 4-6 8-2 6-4 2-4 8h-2l-2 5-1 2h-3l-1 7h-2l-2 6-4 7h-2l-1 5h-2l-1 5-3 6h-2l-2 5-4 7h-2v2h-2l-2 4-14 18-6 9-3 3-9 14-5 4-8 4-23 6-28 6-3 2h-4v2l-5-1 2-5 3-5 2-13h2l1-5h2l1-5 3-4-3-1v2l-6 5v-2l-4-2-1-3h-4l-1-6h-2l1-7 2-5v-11l5-22 2-8 1-11 2-1 1-16-2-8-2-4-1-7 2-12-3-7 2-9 4-7h2l2-5h2l3-10-1-6 7-8 5-4 7-2 2-4 5-4 4-3h2l1-4 5-2v6 4l-1 2h-2l-1 4-8 14-11 17-13 21-8 15 1 5 6 9 3 8 1 8 1 21 1 6 5-7 8-14h2l2-5 6-9 2-4 1 3 4-1 8-7 3 1-1 5-5 10v2h-2l-2 4-5 9h-3l-4 10-3 2-1 3h-2l-2 8h-2l-1 5-3 6-3 9-1 9-1 2 3 1v2h2l-1 5-9 15-2 4 5-2 7-4 17-4 10-4 13-1 8-5 4-4 2-4h2l2-5 5-5 8-12 4-8h2l1-4 8-14h2l1-4 2-4h2l2-6 6-10 5-8 7-11 7-10 5-9 15-25 6-12 34-51 16-23 9-12 3-6 2-10h17v2l5-1z" fill="#032B28"/>
<path transform="translate(1057,725)" d="m0 0 4 1-4 4-14 4-21 5-18 6-13 4-12 5-2 6 3-1h7l1-2 2 1h11l13-3h8l3 2v2l13-4h8l5-1 7-1 8 2 1-2 3 1 1 3-5 2h-4v2l-7 2-12 2v2l-9 2h-4v2l-8 2-8 3-16 4-12 5-12 3-4 2-12 3-15 5-25 6-21 6-25 7-21 6-24 7-23 6-21 6h-11l-2-1-9 1-12 2h-12l-5 1-11-4-7-5v-2l-6-1 1-2 7-4h7v-2l9-4 12-4 24-6 18-5 56-14 45-13 19-6 35-10 12-3v-2l13-2v-2l12-3 7-2 3-1 2-4 12-4 11-2 8-3 26-8z" fill="#54A010"/>
<path transform="translate(537,492)" d="m0 0h22l19 3 20 6 21 8 15 6 13 3h32l20-3 5-1-2 4-13 1-8 2-10 1h-16l-21-2v2h-2l2 8-9-1-30-9-21-3h-21l-20 3-27 9-21 9-18 11-11 9-5 4-7 8-8 10-8 11-9 14-16 32-6 17-5 26-4 28-1 9v25l2 27-2 1-6-19-4-15-5-21-2-8-1-9v-13l2-21 4-20 10-30 10-24 6-11 10-15 7-10 21-7 9-5h3l2-4 5-4 9-11 8-13 6-5 21-7 26-5z" fill="#FE957F"/>
<path transform="translate(737,910)" d="m0 0h6l9 6 11 13 7 11 6 12 6 17 1 10v28l-2 7-6 18-9 14-4 5h-2l-2 4-7 8-17 13-14 7-12 3-9 1h-13l-10-2-9-1-6-2-14-5-14-9v-5h10l19 1 16-3 17-7 14-8 12-11 9-14 6-15 4-16v-17l-3-16-4-13-7-11-8-11-2-3-6-1v-1z" fill="#63082D"/>
<path transform="translate(913,406)" d="m0 0h36l24 3 10 3 6 10 3 6-17-4-30-2-25 1-17 2-25 7-27 10-18 10-22 15-11 9-7 7-9 11-7 8-13 19-12 20-9 19-6 18-7 33-2 13v35l2 18 5 23 7 21 6 15 10 19 7 11 1 4-1 1-7-1-12-18-9-16-10-22-6-25-5-26-2-17v-32l4-28 7-31 8-20 12-23 13-19 9-12 11-12 10-9 11-9 13-11 15-9 19-9 19-7 25-6z" fill="#FBFDFC"/>
<path transform="translate(554,400)" d="m0 0h15l23 3 21 6 16 7 14 8v2l4 1 11 6 5 4v2l4 1 12 11 8 7 14 14 1 4-10 3-13 1-1-6-9-11-4-4v-2h-2l-4-4-11-8-2-1v-2l-7-2v-2l-9-2-4-2-12-1-2 2 2 6-3 3-9-2 1 3-1 3h2l1-2 4 4 2 1v2h3v5h-7l-7-2-18-2h-29l-6 2-18 2-17 3-10 2h-4v2l-6 1h-8l-1-3v-12l-2-16-3-6 2-4 16-9 17-7 17-5z" fill="#E31445"/>
<path transform="translate(1255,250)" d="m0 0h3v7l-4 9-6 16-10 19-5 8h-2v3h-2l-1 4-6 8-11 13-12 10-11 7-4 1v2l-9 4-15 5-11 2h-15l-20-3 1-7 6-12 22-28 11-11 24-16 17-10 28-14 15-8 14-7z" fill="#519F10"/>
<path transform="translate(674,610)" d="m0 0h1v32l4 39 4 19 7 23 11 25 8 15 8 17-3 3-22 6-37 8-27 5-10 2-4-1 6-10h2l2-5 9-17 9-23 8-25 8-32 4-18 2-15 1-15 3-5h1l1 5h1l1-20z" fill="#71082E"/>
<path transform="translate(1151,215)" d="m0 0h23l31 5 12 5 3 3-7 3-30 10-27 10-17 9-9 5-2 2-7 2v2h-2v2l-6 4-9 11-4 2-2 4-4 6-7 11-5 11-1 3h-2l-1 6h-3l-11-14v-2h-2l-4-7-1-6 2-12 6-16 8-15 8-10 14-14 15-10 8-4 22-5z" fill="#8BC714"/>
<path transform="translate(942,853)" d="m0 0h3l-2 4-11 16-16 22-4 7-2 4-2 1-4 8-6 9-2 5-3 5-8 15-11 16-9 13-5 9-5 8h-2l-2 6-4 5-5 9-3 2-1-7-1-21-2-12-6-11-3-4 1-5 7-13 13-21 12-19 8-13 1-3h2l2-5 5-6 3-5 21-7 1-1 9-2 18-6z" fill="#6CB411"/>
<path transform="translate(1155,790)" d="m0 0h4l-3 10-11 26-12 26-12 22-12 20-16 27-9 14-6 9-7 10-11 15-10 13-9 11-9 10-7 8-4 4h-2v2l-11 9-12 10-21 14-12 7-14 7-11 6-5 1v-2l5-5 4-6h9v-2h2l2-5 3-3 17-10 10-8 4-4 5-4 4-5 8-7 12-14h2l2-6 3-1 1-4h2l1-4 5-7 4-4 6-10 4-7 5-6 6-11 5-9 5-7 6-12 6-9 5-9 9-14 4-8h2l2-6 2-5h2l2-5 7-14 6-9 6-12 3-5 8-12 1-3-8 1 4-2z" fill="#126A15"/>
<path transform="translate(605,234)" d="m0 0 4 1 5 3 4 4 11 5 5 4-6-8 1-2 9 9 1 4h2l10 18 6 12 4 10 5 14 4 19 1 11v33h-2l-3-4v-3h-2l-4-6-7 1-3-1-1 7-4-5-6-10-10-16-3-4v-2l-3-1-2-3v-3h-2l-1-4-3-1-3-4v-2h-2v-2h-2l-5-5-1-3-4-2-4-4v-2l-3-1-10-10v-3l3-3h2v-2l11-2 3-6 4-4 2-4 5-4-1-6-4-7-2-4z" fill="#529F10"/>
<path transform="translate(986,746)" d="m0 0h3l-1 3-9 2-7 3h-6v2l-6 2h-7v2l-29 9-25 7-19 6-53 15-57 14-21 6-24 6-21 6-37 9-52 12-42 8-29 4-33 3-19 1h-51l-23-1v5l3 1 3 9 2 4h2l1 6h-9l-26-5-10-2-3-4-5-13-6-16-3-11 10 2 18 5 12 2 8 2 31 4 32 2h26l35-2 38-5 21-4 24-4 16-4 16-3 11-3 24-5 13-4 21-5 15-4 17-5 27-6 19-4 6-2 23-6 15-4 14-4 22-6 9-3 14-4 25-7 12-3 12-4 16-4z" fill="#D4F967"/>
<path transform="translate(1007,832)" d="m0 0h4l-2 6-6 11-11 18-12 20-10 17-18 30-3 4h-2l-1 6-5 6-3 7-2 1-4 8-5 7-3 5-12 18h-2l-1 4h-3l2-7-4 1-15 24-4 7-3 3-4 5-1 3-5 5-8 11-9 12-6 12-8 5-6 4-3-1 6-11 10-17 16-24 13-22 11-17 8-17 14-20 12-20 15-24 13-21 11-16 11-18 9-17 24-7z" fill="#FAFCE0"/>
<path transform="translate(1169,693)" d="m0 0h6v32l-5 3-44 14-57 17-3-1h2l2-4-10 1-4-1-9 1-5 1-9 1-4 2h-4l-3-3h-8l-15 3h-10-2l-7 1h-3l1-7 11-4 10-4 21-6 17-5 17-4h3l1-3 6-5 17-4 15-4 29-8 9-2 14-4 8-3z" fill="#3C9214"/>
<path transform="translate(332,356)" d="m0 0h33l12 3 10 4 12 7 11 10 6 4v2l3 1 6 11 5 11v6l-5 5-10 9-2 3h-2l-2 5-2 1h-1l-1 2-4-1v-3l-5-2-12-14-5-5-1-4 5 2 1 3 4 2 5 2-4-5-10-8-6-4-11-6-13-6-21-7-10-4-14-4-5-2v-2l-8-1 3-4 21-8 8-2z" fill="#8BC714"/>
<path transform="translate(1095,820)" d="m0 0 3 1-2 5h-2v2l-3 2-4 8 1 5v12l-1 3h-2l-1 5-4 8-3 4-2 5h-2l-2 6-7 11-1 3h-2l-1 4-5 10h-2l-2 5-6 9-4 7-5 5-3 4-1 5-3 1v4l-3 3-4 5-7 6h-2l-2 4-4 3-4 1-3 3h-3v2h-2l-2 5-9 10-4 2-3 6h-2l-1 3h-2l-2 5-8 14-8 13-8 12-4 5h-2l-2 4-6 5 2-6 6-10 7-10 4-8h2l2-6 5-9 5-7 5-9 6-10 3-7 7-12 8-11 6-10 8-13 9-14 5-9 7-11 8-13 10-15 8-13 4-9 3-6h2l2-6 4-6 5-2h3l1-3 11-7z" fill="#6FB611"/>
<path transform="translate(754,906)" d="m0 0h8l8 7 8 9 10 16 8 17 5 19 2 13v13l-3 18-5 18-6 14-8 13-11 12-11 10-14 9-12 6-9 2 1-2 7-3 12-6 9-6 3-1v-2l-8 3h-2v2l-8 2-1 3-16 4-4-1-4 1-7-2v-2h-2v-2l-25-1-7-2-15-4-12-4-6-4-5-3-8-7-4-3v-2l-3-1 3-4 12 4 16 3h24l-4 2-14 1-23-2 1 5 15 9 13 4 5 2 11 1 8 2h13l14-2 14-5 11-7 13-10 7-8 8-9 9-15 5-17 2-6v-28l-1-10-8-22-8-14-9-11-5-6-8-5v-2z" fill="#9A0836"/>
<path transform="translate(1e3 65)" d="m0 0h3l-2 4-10 10-9 11-11 13-20 20-11 9-17 14-15 14-4 2 1-10 9-22 11-21 2-4-14 4-17 7-14 8-16 9h-2v2l-9 6-10 10-7 6-3 3-2 4h-2l-2 4-9 12h-2l-2 4-7 12h-2l1-8 9-17 7-10 8-11 12-14 13-11 15-12 22-14 17-8 22-8 41-11z" fill="#FAFDE2"/>
<path transform="translate(958,861)" d="m0 0 9 1 2 2-9 14-14 21-16 26-14 23-12 18-7 10-9 19-11 17-12 20-19 29-3-1-3-3 1-11 3-9 5-11h2l1-6 1-2h2l1-4 3-1 1-5 3-5h3l2-6 5-7h2l-1-3 6-11v-3l-4 2-7 6-4-1 2-6 20-30 7-14 2-2 3-7 4-6 5-9h2l1-4 6-9 8-7 6-3 4-4 8-2 1-3 4-4h3v-2h2v-2z" fill="#042423"/>
<path transform="translate(870,876)" d="m0 0 1 2 1 7-2 3h-2l-1 4-8 14-11 17-13 21-8 15 1 5 6 9 3 8 1 8 1 21 1 6 5-7 8-14h2l2-5 6-9 2-4 1 3 4-1 8-7 3 1-1 5-5 10v2h-2l-2 4-5 9h-3l-4 10-3 2-1 3h-2l-2 8h-2l-1 5-3 6-3 9-1 9-1 2 3 1v2h2l-1 5-9 15-2 4h-2l-2 7-7 11-1 3 4 1h-4v2l-5-1 2-5 3-5 2-13h2l1-5h2l1-5 3-4-3-1v2l-6 5v-2l-4-2-1-3h-4l-1-6h-2l1-7 2-5v-11l5-22 2-8 1-11 2-1 1-16-2-8-2-4-1-7 2-12-3-7 2-9 4-7h2l2-5h2l3-10-1-6 7-8 5-4 7-2 2-4 5-4 4-3h2l1-4z" fill="#05282D"/>
<path transform="translate(382,881)" d="m0 0 12 3 26 5v2l10 1 26 4h58l32-3 15-2h6v1l-9 2h14l11-1h10l3 1 16-1 35-3 3-2 7-1 4 2v2l-9 4-36 8-26 5-33 5-18 2-17 1h-42l-28-2-15-2-13-2-10-2-21-5-3-2-5-10v-5h-2z" fill="#509E10"/>
<path transform="translate(1066,832)" d="m0 0 4 1-1 5-5 9h-2l-1 4-4 9-7 12-10 15-8 13-12 19-9 14-4 7-6 10-9 14-10 15-4 7-3 8-5 7-5 9-4 6-5 9-3 6h-2l-1 4-9 14-4 4h-2l-1 4h-2v3l-4 1v2h-2l-1 5-5 2-1-3-5 1-7 3-6 5h-2v2l-3-1 6-10 3-3 14-19 7-9h2v-2h2l2-5 4-7 2-2 2-4 2-5h2l1-5h2l2-5 4-8h2l1-7h3l2-5 1-2h2l2-6 3-4h3l2-7 8-11h2l2-6 1-2h2l2-5 1-3 2-1 5-11h2v-2h2l2-7h2l2-8h2l-1-3 5-8 4-1 1-6 7-13 6-5h2l2-4h2l-1-4 5-1v-3l3-2 1-3h2l1-4 2-1v-2h3v-3h2v-3h2v-2h2v-3z" fill="#072722"/>
<path transform="translate(264,391)" d="m0 0h5l8 5 26 10 16 8 18 10 16 12 3 4 5 3 4 5 5 5 8 13 2 3v4l-7 2-7 1h-10l-20-3-20-8-9-6-11-10-7-8-11-15v-3h-2l-9-19-3-7z" fill="#348613"/>
<path transform="translate(811,800)" d="m0 0 4 1-4 2v2l10 1h12l4-1 16 1 3 1h13l15-3 8-1h8l5 2 1 2-30 9-39 11-54 15h-11l-2-1-9 1-12 2h-12l-5 1-11-4-7-5v-2l-6-1 1-2 7-4h7v-2l9-4 12-4 24-6 18-5z" fill="#6DB411"/>
<path transform="translate(707,157)" d="m0 0 4 1 1 7h3l6 12 6 16 6 19 3 11 2 6 1 8-1 3-2 1h-8l-5 3-3 2 1 9-4 1-3-3-3-7v9l4 24v37l-1 17-2 11-2 5-2-2v-11l-1-19-1-5-2-1-2-9h-2v-7l2 3 5 12v-16l-4-46-4-22-9-21-9-16-8-12-1-2 2-1 4-5 9-4 17-6z" fill="#114942"/>
<path transform="translate(581,281)" d="m0 0 8 6 11 12 8 7v2h2v2h2l4 6 3 3v2h2l3 6 4 4 10 15 6 11 4 6v2h2v3l4 2 6 10 10 12v3l3 1 1 3 10 10 8 11 3 8-4-2-7-7-3-4v-2l-4-2-5-6v-2l-3-1-2-4-4-3-2-4-5-5v-3l-3-1v-3l-3-1-1-3-2-1-15-2-16-8-10-4-16-8-16-9v-2l-5-2-7-5 2-1 3 2 2-2-1-5-2-7 3-3 1-8 1-7 3-1 1-7 6-7 1-4-2-1z" fill="#6CB410"/>
<path transform="translate(974,174)" d="m0 0 1 3-6 12-4 7-4 4-5 6h-2l-2 4-6 7-1 2h-2l-1 4-4 4-5 3-1 3h-2l-1 5-3 4-3 6-8 4-4 4-7 2-2 4h-2v8l-5 2v2l-7 3h-2l-2 3-9 9-6 1v2h-3l-1 2h-6l-3 1v2l24-1-4 2-7 1h-14l-19-2-23-4-2 6-8 16-12 20-4 5-3 5-7 11-5 6-1-3 10-18h2l2-5 9-17 5-8 7-14 1-5-3-2v-3h-2l-1 3-1-4 5-9 3-7 11-22 7-10 8-11 9-10 4-5 8-7 10-8 18-10 8-5-2 4-3 5h-2l-2 4-11 13-9 10-13 17-13 18-14 21-8 14-1 3 10-3 16-3 18-7 17-9 7-5 6-3 4-1v-2l11-7h2v-2l3-1 5-5 5-4h2l1-3 6-4 22-22h2l2-5 4-5h2l1-4h2v-3h2l1-4 8-13h2z" fill="#2A7B12"/>
<path transform="translate(1016,312)" d="m0 0 3 2 2 4 5 5 9 11v2l3 1 1 4h2l10 14 3 5v2l3 1 5 10v2l3 1 3 5 4 10 4 9 3 21v9l-4-5-4-7-2-8-3-5v-2l-3-1-5-12-11-16-9-8v-2h-3l1 10 2 10 2 7h3l3 7 3 9 7 19 1 2h-7l-15-8-10-8-7-9-7-14-4-15v-31l5-21z" fill="#8AC714"/>
<path transform="translate(449,950)" d="m0 0 11 1 10 1 59 2v9l-2 15v25l3 21 1 9-3 1-13-9-13-10-12-11-10-10-21-27-9-13z" fill="#B80839"/>
<path transform="translate(969,803)" d="m0 0h6l-3 3h-2l-3 3-89 26-104 30-24 6-21 6-35 8-27 6-10 2 1-2h3v-2l-6-1-7 1-1 2-26 2-9 1h-8l-10 1-4-1h-13l-7 1h-22v-1l19-3 7-2 18-2 19-3 6-2h7v1l8-1 17-2h12l10-3h7l3-2 5-1 9 1v-3l8-1h7l4-1 1-3 9 1 10-1 5-2 2-1h10v-2l7-2v2h2v-2h5l1-2 10-1 5-1 1-2 16-4 3-2h7l2-2h6l7-2 3-1h7l1-2h2l5-2h4l1-2 5-1 17-5 13-3 5-2 4 1 1-2 12-2 3-1 2 1v-2l4-1 1-1 7-1 5-1v-2l11-2 7-2h3l1-2v2l5-2 1-2 13-2z" fill="#348612"/>
<path transform="translate(453,434)" d="m0 0h3l2 10 1 11v15l-3 14-5 11-7 10-8 9-10 7-11 5-8 2h-5v-10l2-13 7-21 5-10 8-10 8-8 7-8z" fill="#146B15"/>
<path transform="translate(1255,250)" d="m0 0h3v7l-3 7h-3l-1 5h-2l-2 6-8 6-5 5-8 9-4 3h-4l-1 3-5 2-6 2v2l-24 11-16 5-25 6-8 8-6 7h-2l1-4 12-16 11-12 9-8 20-13 17-10 28-14 15-8 14-7z" fill="#8CC814"/>
<path transform="translate(614,432)" d="m0 0 12 1 13 5v2l5 1 2 1v2l5 2 12 9v2h2l7 8 7 9 1 4-1 2 16-3 6-1-1 2-6 2-28 4h-7l-20-5-24-10-21-6-26-4h-31l-28 4-11 1 4-2 24-4 13-2 11-2 3-1h29l18 2 7 2 7 1v-2l-2-1h2v-2h-3v-2l-5-2-4-1-1-7 8 1 1 1 2-2v-3l-2-5z" fill="#B70839"/>
<path transform="translate(463,199)" d="m0 0 3 2 6 18 9 25 8 15 12 17 11 12 7 8-2 1-2-1v-2h-2v2h-2l1 5h2l1 5h2l1 7-5 3-1 14 4 7 1 5 2 5-4-2-13-13-11-14-8-11-4-9-4-8-3-8-1-4h3l-1-8-3-9-3-11-3-15-3-21v-10z" fill="#6CB411"/>
<path transform="translate(1006,64)" d="m0 0h5l2 6v27l-2 34-5 30-5 18-8 21-1 2h-2l-1 6h-2l-3 9-3 5h-2l-1 5-9 12-11 13-7 7-4 3h-2l-1 3-7 5h-2v2l-9 6-11 6-9 4-12 5-5 1 1-5 12-6 10-4 3-2h3v-2l3-2h3v-2h3v-2l7-5h2l1-3 5-4 7-6h2v-2h2v-2l5-5 5-6 8-16 2-6h2l2-5h2l1-5 1-3h2l1-5 4-8 2-10h2l-1-8 2-5-4 1-1-4 1-5 3-11 1-2h2v-9l1-8 1-4h-2v4h-2l-1 2 2-10 3-10 1-2 3-22v-5h-2l2-9 4-4z" fill="#3A9014"/>
<path transform="translate(1151,215)" d="m0 0h23l25 4 4 2-22-1-21 3-16 5-14 6-18 11-13 11-8 9-7 11-7 15-3 14v15l3 5-1 6-5-5-7-9v-2h-2l-4-7-1-6 2-12 6-16 8-15 8-10 14-14 15-10 8-4 22-5z" fill="#D8FD74"/>
<path transform="translate(1007,832)" d="m0 0h4l-2 6-6 11-11 18-12 20-10 17-18 30-3 4h-2l-1 6-5 6-3 7-2 1-4 8-5 7-3 5-12 18h-2l-1 4h-3l2-7-4 1-15 24-4 7-3 3-4 5-1 3-5 5-8 11-9 12-6 12-6 4-2-1 3-5 5-6 8-12 9-12 18-27 14-24 8-12 11-16 8-12 11-18 13-21 19-29 12-19 7-12 8-16 7-4z" fill="#D9F24C"/>
<path transform="translate(605,234)" d="m0 0 4 1 5 3 4 4 11 5 5 4-6-8 1-2 9 9 1 4h2v6l2 2v6l-1 2 4-1v5l-3-1-2 4 1 15-5 9 2 18-5-3-9-10-3-3-10-5-16-11-9-5-4-5 1-2h2v-2l11-2 3-6 4-4 2-4 5-4-1-6-4-7-2-4z" fill="#6CB411"/>
<path transform="translate(554,400)" d="m0 0h15l23 3 21 6 10 4v2l-11-1-5-1h-9v1l-14 2v1l-7 1-21 1-6 2h-5v2l-13 1v2l-21 6-9 4-6 3h-2v2l-9 6h-2l-1-6-2-9-2-5 10-7 19-9 19-6 20-4z" fill="#F9FBFA"/>
<path transform="translate(717,822)" d="m0 0h8l-2 2-68 17-31 7-24 5-34 6-22 3-33 3-19 1h-51l-23-1v5l3 1 3 9 2 4h2l1 6h-9l-26-5-10-2-3-4-4-9-1-8-2-9 7-1 11 2 6 2 24 4 10 1 42 1 44-1 9-2 25-2 12-3 15-1 3-2 22-3 3-2 18-2 2-2 17-2 4-2 15-2 3-2 14-2 3-2 13-2 3-2 11-1z" fill="#D8F149"/>
<path transform="translate(901,865)" d="m0 0h3l-1 4-12 20-11 19-9 15-24 38-7 10-2 7-3-1-6-11-3-4 1-5 7-13 13-21 12-19 8-13 1-3h2l2-5 5-6 3-5z" fill="#F3FEB7"/>
<path transform="translate(870,876)" d="m0 0 1 2 1 7-2 3h-2l-1 4-8 14-11 17-13 21-8 15 1 5 6 9 3 8 1 8 1 21 1 9-7 11-1 2h-2l-1 5-6 10h-2v-6l2-6 2-14 1-24-1-15-2-8-2-4-1-7 2-12-3-7 2-9 4-7h2l2-5h2l3-10-1-6 7-8 5-4 7-2 2-4 5-4 4-3h2l1-4z" fill="#072822"/>
<path transform="translate(1220,227)" d="m0 0 4 1-1 3-18 8-16 8-19 9-19 11-13 10-15 13-12 11-8 8-12 17-6 12-1 3-3-1-3-4v-2l-3-1 1-2 2-3 1-3h2l1-6 8-15 5-6 3-5 5-5 10-12 4-3h2v-2h2v-2l8-4 6-4 11-6 15-7 25-9 20-7 12-4z" fill="#287A12"/>
<path transform="translate(597,412)" d="m0 0h10l10 2h8l18 10v2l4 1 11 6 5 4v2l4 1 12 11 8 7 14 14 1 4-10 3-13 1-1-6-9-11-4-4v-2h-2l-4-4-11-8-2-1v-2h-2l-4-4-14-6-9-4-9-2-6-2-17-1-21 1v2l-3 1-1-2h-3l-1 3-4-1 2-5-3 1-6-1v-1l11-3 21-1 5-1v-1l15-2z" fill="#F11047"/>
<path transform="translate(456,172)" d="m0 0 9 2 13 3 47 9 26 7 22 10 36 21 13 11 5 7h-3l-34-20-21-7-9-2-8-3-27-8-39-9-9-2-4-3v-2l-5-1-5-6-6-3z" fill="#FBFDE0"/>
<path transform="translate(986,85)" d="m0 0h2l-2 4-12 14-20 20-11 9-17 14-15 14-4 2 1-10 9-22 11-21 2-4h-5l3-2 11-5 36-11z" fill="#D9F14A"/>
<path transform="translate(583,944)" d="m0 0h9l-4 10h-2l-4 18v27l3 19 7 20 7 13 6 11 4 3 1 3 2 1 1 3 6 5 3 5-4-1-10-7-10-9-12-12-9-14-6-14-5-19-1-7v-20l3-18 4-12 2-3z" fill="#F8FBF9"/>
<path transform="translate(382,881)" d="m0 0 12 3 26 5v2l10 1 26 4 52 1v1h-47v3l6 2 11 3v2h14l10 1 6 2 5 1v3h-51l-25-3-13-2-10-2-21-5-3-2-5-10v-5h-2z" fill="#6CB411"/>
<path transform="translate(264,391)" d="m0 0h5l8 5 26 10 16 8 18 10 16 12 3 4 5 3 2 2 2 5 1 2-6-2v-2l-10-1-8-5-4-1 1 6 2 1-7-1-15-6-9-5-16-11-10-8-7-8-3-5-5-4-5-6z" fill="#8CC814"/>
<path transform="translate(890,182)" d="m0 0v3l-4 6h-2l-2 4-11 13-9 10-13 17-13 18-14 21-9 15-2 4h-2l-1 2-2-4-2-1v-3h-2l-1 3-1-4 5-9 3-7 11-22 7-10 8-11 9-10 4-5 8-7 10-8 18-10z" fill="#156C15"/>
<path transform="translate(673,537)" d="m0 0 5 1 3 3-3 3h-3l1 4 4 4 1 5-4 4 1 3-1 2 2 2v3h2l1-11-1-2 4-2 4-8 1 2-6 18-4 18-4 24h-2l-1 13-1 20h-3l-1-4-2 4-2 22-3 17-7 30-6 20h-1v-6l4-13 2-10 2-5 4-20 1-15-1-7 1-21 1-19-2-1 2-4v-14l1-8v-19l2-4 3-9 1-1v-17z" fill="#9C0836"/>
<path transform="translate(471,186)" d="m0 0h2l4 4 9 2 30 7 23 6-2 2 7 11 7 10 7 16 4 11-1 4-13-12-13-10-19-13-18-13-13-10-10-9-4-5z" fill="#D9F14B"/>
<path transform="translate(1222,426)" d="m0 0 5 1 6 7 5 7 12 8 3 3-1 4-11 8-5 5-7 10-5 5-5-3-6-11-16-12-2-2 1-4 9-7 7-5 6-11z" fill="#11303F"/>
<path transform="translate(449,950)" d="m0 0 11 1 10 1 59 2v9l-2 15v25l3 21 1 9-3 1-13-9-12-9 4-1v-3l-2-7 4-15v-23l-2-5-4-3-4-2-36-1-5-2v-2l-9-1z" fill="#9D0836"/>
<path transform="translate(280,544)" d="m0 0 5 1 6 7 5 8 10 6 4 5-3 5-9 6-4 3-4 8-6 6h-6l-6-7-3-6-11-8-4-3 1-5 9-8 5-4 6-10z" fill="#143541"/>
<path transform="translate(905,1049)" d="m0 0v3l-1 5v8l-8 13-6 8-9 5-12 4-21 5-20 4-7 1 1-4 7-12 2-5 6-1 8-5 17-4 10-4 13-1 8-5 4-4 2-4h2l2-5z" fill="#136B15"/>
<path transform="translate(367,839)" d="m0 0 10 2 18 5 12 2 8 2 31 4 32 2h26l35-2 38-5 21-4 10-1-1 3-3 2-22 3-3 2-15 1-12 3-25 2-9 2-55 1-31-1-21-3-18-3-1-1-11-2h-7l4 12-1 2-5-11z" fill="#D8FE75"/>
<path transform="translate(581,278)" d="m0 0 5 1 1 3 6 2 21 14 9 5v2l4 2 10 11 3 3 4 7 7 11 3 5 3 3v3h2l3 5v2h2l2 3h2v-25l-3-21-4-14 1-4 5 16 3 15 1 11v33h-2l-3-4v-3h-2l-4-6-7 1-3-1-1 7-4-5-6-10-10-16-3-4v-2l-3-1-2-3v-3h-2l-1-4-3-1-3-4v-2h-2v-2h-2l-5-5-1-3-4-2-4-4v-2l-3-1-10-10z" fill="#146C15"/>
<path transform="translate(287,375)" d="m0 0 4 1v3l6 2 3-1-3-3 7-2 14 4 10 4 16 5 6 3v2h-2l2 4 3 2h-3l3 5 6 5 7 4 4 4v3l1 5 3 1 1 5h-5l-3-3-1-3-10-4-13-8-14-6-6-4-8-4-1-3-5-1-9-4-3-3v-4l-5 1-2-2h-1-4l-1-5h2z" fill="#05272C"/>
<path transform="translate(782,979)" d="m0 0h1v28l-2 7-6 18-9 14-4 5h-2l-2 4-7 8-17 13-14 7-12 3-9 1h-13l-10-2-9-1-6-2-14-5-14-9v-5h10l19 1 16-3 15-6 2 1-10 5-14 5-10 2 4 2v2l6-1h21l7 3 1 3 10 1 9-4 9-1 9-4 9-6 5-5h2l3-6h2v-2h2l2-4 12-20 5-15 2-7z" fill="#71082E"/>
<path transform="translate(1174,693)" d="m0 0h1v32h-1l-1-18h-2l-1 4-5 9-9 4-4 2-10 1h-3l-8 1-10-1-10 2h-7l-1-1h-3-7l-9 2h-4l-5-1 1-2 9-2h1l7-3 5-1 2-2h2l15-5 5-3 28-8 12-4 3-2 8-2z" fill="#348613"/>
<path transform="translate(796,496)" d="m0 0h10l8 4 6 8 1 3v10l-3 8-6 7-8 3-9-1-10-6-4-7v-13l4-8 5-5z" fill="#FEFFFD"/>
<path transform="translate(952,933)" d="m0 0v3l-13 22-15 23-22 36-10 18-14 24-8 11-3 3-5 2-15 3 8-15 12-16 8-11h2l1-4 5-7h2l1-4 15-24 4-5 4 1-2 7 2-1 1-3h2l2-5 10-14 7-11 5-9h2l2-7 6-8 1-4z" fill="#8CC815"/>
<path transform="translate(1070,835)" d="m0 0h5l-2 5-12 20-8 16-11 18-14 22-6 10-20 32-17 26-13 25-10 17-8 13-8 12-4 5h-2l-2 4-6 5 2-6 6-10 7-10 4-8h2l2-6 5-9 5-7 5-9 6-10 3-7 7-12 8-11 6-10 8-13 9-14 5-9 7-11 8-13 10-15 8-13 4-9 3-6h2l2-6z" fill="#D9FB6C"/>
<path transform="translate(558,332)" d="m0 0 5 2 11 7v2l5 2 16 8 15 8 8 3 14 7 15 2v1h-29l-28-3-29-1-8-1v-1l10-1v-8l-1-3-2-1 1-3-2-11z" fill="#348613"/>
<path transform="translate(970,950)" d="m0 0 3 3-1 5-3 3v6 3l-4 7-1 2h-2l-2 5-1 2h-3l-1 7h-2l-2 6-4 7h-2l-1 5h-2l-1 5-3 6h-2l-2 5-4 7h-2v2h-2l-2 4-14 18-6 9-1-2v-11l13-20 4-8h2l1-4 8-14h2l1-4 2-4h2l2-6 6-10 5-8 7-11 7-10 2-4 2 1z" fill="#104840"/>
<path transform="translate(264,394)" d="m0 0 5 4 8 8 3 5v2l3 1 4 5 17 12 9 6 15 7 11 3-1-6 6 1 6 4 10 2v2l5 1-2-4 4 2 1 5-19-2-19-5-14-5-6 1-2 3h2v2l4 2 3 2v5l5 2 4 3 5 3 2 4h-8l-16-8-13-12-7-8-11-15v-3h-2l-9-19-3-7z" fill="#388E14"/>
<path transform="translate(839,881)" d="m0 0h2l-2 6-11 17-12 19-4 9h-3l-7-10-3-5-8-11-3-4v-2h-2v-4l19-5 20-6 9-2z" fill="#4F9C10"/>
<path transform="translate(1035,364)" d="m0 0h3l5 6 6 5 10 15 5 12 3 3 4 7 2 8 5 8-1-13-1-11 2 4 4 21v7l-14-2-13-4-1-2 2-1-4-9-5-13-4-11v-3h-3l-4-10-2-14z" fill="#297B12"/>
<path transform="translate(735,581)" d="m0 0 1 2-6 28-2 13v35l2 18 5 23 7 21 6 15 10 19 7 11 1 4-1 1-7-1-12-18-9-16-10-22-6-25 1-3 2-3 1 5v-32l-1-10v-21l2-25h2v-7l4-10z" fill="#F9FDE4"/>
<path transform="translate(702,517)" d="m0 0 1 2-7 16-2 1h-43l-21-3-5-1-2 1 2 10 4 6v2h-2v-2h-2l-3-6-2-1-4-8-3-3-3-2 1-2h-3l-1-3 7 1 14 4 6 1-2-9 2-2 21 2h16l15-2 3-1z" fill="#F51148"/>
<path transform="translate(969,803)" d="m0 0h6l-3 3h-2l-3 3-89 26-100 29h-3v-2l-9 3-5-1-7 2-4-2 1-2 7-2v2h2v-2h5l1-2 10-1 5-1 1-2 16-4 3-2h7l2-2h6l7-2 3-1h7l1-2h2l5-2h4l1-2 5-1 17-5 13-3 5-2 4 1 1-2 12-2 3-1 2 1v-2l4-1 1-1 7-1 5-1v-2l11-2 7-2h3l1-2v2l5-2 1-2 13-2z" fill="#338513"/>
<path transform="translate(368,686)" d="m0 0h1l2 21 6 23 3 14 4 14 3 16 4 16 4 12 3 5v2l2 1-11-2-9-4-6-24-5-29-2-28v-14z" fill="#AE0838"/>
<path transform="translate(757,68)" d="m0 0h5l6 7 3 6 12 11-2 5-11 8-4 6-4 5-5-1-5-6-2-5-4-2-9-6 1-4 13-13z" fill="#0F303C"/>
<path transform="translate(1016,312)" d="m0 0 3 2 1 8-1 2v26l1 16 6 26 4 11 7 15-3 1-9-7-7-9-7-14-4-15v-31l5-21z" fill="#F2FDB5"/>
<path transform="translate(739,235)" d="m0 0h1l1 11v25l-3 6-2 6h-2v5l-4 1-4-4-4-1-4-4v-3h-3l-1 2-4-24v-10l3 3 3 6 4 1-1-9 4-3 3-1 2-2h10z" fill="#05272D"/>
<path transform="translate(332,356)" d="m0 0h33l12 3 10 4 12 7 11 10 6 4 3 9-5-1-16-9-19-9-17-6-14-3-9-1h-27l-9 2 1-3 11-4 8-2z" fill="#D8FD77"/>
<path transform="translate(452,207)" d="m0 0h1l1 5 2-3 1 2 2 22 7 26 7 23 3 8 5 10 2 7h-3l-4-7-10-20-4-10-2-3v-3h-2v-2l-3-1v-2h-2l-2-2-1 2-4-1-2 2-1-4-2-4-3-16v-8l3-5 4 4v6l2 1v-6h2v-9h1l1-11z" fill="#062B2C"/>
<path transform="translate(805,167)" d="m0 0 1 3v3l5 5 2 6-3 10-4 11-4 15h-3l-2 3-2 9-2-1-1-6 1-10-3 5-2 8h-2l-2 2-2-9-1-3 4-11 2-7 2-4 2-7 2-4 2-7 5-7z" fill="#05272C"/>
<path transform="translate(857,871)" d="m0 0 7 1 1 4-1 2 2 1-1 3-10 7-5 5-6 3-5 4-2 3h-2l-2 5 2 1-1 5-3 8h-2l-2 5-4 4-3 9-2 3-4-8v-2l-4-1 4-7 6-11 14-22 5-7 2-5-10 4h-3l1-3 13-5 5 1 8-5h2z" fill="#05282D"/>
<path transform="translate(1252,252)" d="m0 0 2 1-8 7-15 9-18 11-7 4h-2v2l-8 4-4 3h-3l-1 2-6 2-1 2-6 2-1 2-9 6-5 4-5 5-9 8-8 6-8 9-3 3h-2l1-4 12-16 11-12 9-8 20-13 17-10 28-14 15-8z" fill="#F2FAE0"/>
<path transform="translate(1252,264)" d="m0 0h2l-2 7-6 15-8 15-5 8-1-4-7 4-1 2-5 3-7 6-13 6v-2h-2v2h-11l-5 2-3-1v-2l6-1 1-3 5-2 2-5 10-5 1-2h3v-2l6-3 5-2 1-2 5-2 7-6 5-6 8-7 4-3 2-5h2z" fill="#3B9114"/>
<path transform="translate(1104,212)" d="m0 0h3l1 4-5 5h-2v3l2 2 3-1 13-6 4 1v1l-9 3-15 9-12 11-5 4-3-3-7 1v2l-5 2-1 6-2 2-1 5-2 1-3 6-2 3-5 1-1-3h-2l3-9 3-7 3-6h2v-3l5-5h3l1-4h3l1-4 15-11 12-5 2-1 1-3z" fill="#06292C"/>
<path transform="translate(735,907)" d="m0 0 1 2 6-1 4 1-25 6-19 5-25 6-14 4-32 7-26 5-12 3-1-2 9-3h3l-1-4 10-3 11-1 29-9 18-4 10-3 13-2 12-2 13-4h10l6 1z" fill="#0B172C"/>
<path transform="translate(954,92)" d="m0 0 4 1-24 8-6 3h-3v2l-21 8-16 8-7 4-12 7h-2v2l-9 6-10 10-7 6-3 3-2 4h-2l-2 4-9 12h-2l-2 4-7 12h-2l1-8 9-17 7-10 8-11 8-9 8-6 5-4h7l8-3 5-2v-2l12-7h2v-2l21-9 16-5 10-4z" fill="#F4FEBA"/>
<path transform="translate(452,435)" d="m0 0h3v5l-7 10-6 10-9 11-8 13-9 16-6 16-4 9-3 1 2-20 3-14 6-15 9-12 9-9 7-8z" fill="#F5FBB9"/>
<path transform="translate(974,840)" d="m0 0h7l-6 13-5 9-4 1-8-1-3 4h-2v2h-2v2l-3 1-5 6-10 4-5 5-4 2-5 5-2-1 6-8 8-11 12-17 1-4 8-5v-2l6-1 9-2z" fill="#05272C"/>
<path transform="translate(1080,805)" d="m0 0 6 1v3h-3v5l-3 1-2 6-4 8-2 6h-2l-1-2-5 1-10 4-5 3h-3v-2l-8 6-7 6 2-5 11-15 7-9 3-10 1-5h17v2l5-1z" fill="#05272D"/>
<path transform="translate(605,941)" d="m0 0h8l6 5 4 8v8l-6 7-8 4h-10l-7-8-3-3v-7l4-6 5-5z" fill="#FEFCF8"/>
<path transform="translate(824,961)" d="m0 0 3 1 7 11 3 8 1 8 1 21 1 9-7 11-1 2h-2l-1 5-6 10h-2v-6l2-6 2-14 1-24-1-15-2-18z" fill="#136B15"/>
<path transform="translate(1173,726)" d="m0 0h1v20l-2-1v-13l-2-1-2 6-6 4-16 5-18 2-12 3-8 1h-2l-1 1h-6l-1 2-4-1-4 2h-6l-1 2h-6v2l-11 2-9 5-5 1-9 2-11 2-7 1 2-2h3v-2l6-2h7v-2l12-3 1-1h6v-2l14-3 40-12 36-11z" fill="#126A15"/>
<path transform="translate(737,910)" d="m0 0h6l5 3-3 2h-2v5l2 5h2v2h2l2 5-4 3 1 11 3 5 3 8 2 4v11l-4 4h-5v-3l-1-6v-3l-2-2-2-12-6-21-2-5h-2v-4l-3-1-2-2-3 3-1 6-4-4-3-5-6-1v-1z" fill="#71082E"/>
<path transform="translate(790,800)" d="m0 0 2 1-1 2 2 1-7 3-31 8-21 6-17 2-7 3-11 1-7 3-9 1-3 2-14 2-3 2-15 2-4 2-17 2-2 2-6 1h-12l1-2 30-7 16-3 11-3 24-5 13-4 21-5 15-4 17-5 27-6z" fill="#D5FA6C"/>
<path transform="translate(453,434)" d="m0 0h3l1 13-3 7-3 5-3 9-7 12-3 5-6 9h-2l-2 5-2 4-7 5-6 10h-2l-2 6h-2l3-11 5-13 6-11 9-15 10-13 6-9 7-11 2-6z" fill="#8DC915"/>
<path transform="translate(845,1078)" d="m0 0 4 1-9 6-3 1-1 2 4-1 3 1 9-3 8-2 2 2 14-2 4-2 5 1 1 4-3 1v2h-2v2l-12 4-21 5-20 4-7 1 1-4 7-12 2-5 6-1z" fill="#287A12"/>
<path transform="translate(878,972)" d="m0 0 3 1-1 5-5 10v2h-2l-2 4-5 9h-3l-4 10-3 2-1 3h-2l-2 8h-2l-1 5-2 3h-2l2-6v-2-2l-7 3-2 1 1-5 3-8 12-20h2l2-5 6-9 2-4 1 3 4-1z" fill="#032A28"/>
<path transform="translate(896,877)" d="m0 0v3l-14 25-10 16-11 18-14 22-7 10-2 7-3-1-1-4 2-1 5-10 3-1v-2h2l2-5 6-9 1-4-1-3 3-6 4-3 2-6 4-5 2-9 1-10 3-8 4-5 7-4 10-3z" fill="#D9FD70"/>
<path transform="translate(602,500)" d="m0 0 7 1 5 3v2l9 1 1 1 23 2h17l25-2h13l3 3v3l-12 3-14 2h-32l-16-4-27-11-3-2z" fill="#14162B"/>
<path transform="translate(1023,342)" d="m0 0 5 5 9 11 13 16 2 3 7 4 3 3 2 5 4 2 5 9 1 1 1-4 4 24v9l-4-5-4-7-2-8-3-5v-2l-3-1-5-12-11-16-9-8v-2h-3l1 10 2 10 2 7h3l3 7 3 9 1 6-3-4-5-13v-2h-2l-8-17-4-9-2-10-2-9z" fill="#6AB311"/>
<path transform="translate(773,862)" d="m0 0h2l-1 3-24 6-21 6-35 8-27 6-10 2 1-2h3v-2l-6-1h-5l2-2 7-1 5-1 14-3 2 1v-2l12-2 6-2 16-2 2 1v-2l14-3 11-3h8v-2l11-1 3-1 3 1z" fill="#398E14"/>
<path transform="translate(793,281)" d="m0 0 2 1 1 13 4 1 2 1 1 5-3 9-3 5-4 7-10 18-2 1-8 16-1-4 1-3h2l-1-6-3-3 2-1 3-9 4-8 3-8h2l2-9 2-10v-6l1-4 1-2h2z" fill="#05282C"/>
<path transform="translate(420,391)" d="m0 0 3 3 6 12 1 9-5 5-10 9-2 3h-2l-2 5-2 1h-1l-1 2-4-1v-3l-5-2-12-14-5-5-1-4 5 2 1 3 4 2 5 2 5 3 7 9 3 1v-9l-3-3-2-1-1-4 3-5h2v2h2l3 3v2l6-4 1-14 2-4z" fill="#69B211"/>
<path transform="translate(264,394)" d="m0 0 5 4 8 8 3 5v2l3 1 4 5 17 12 9 6 15 7 11 3-1-6 6 1 6 4 10 2v2l5 1-2-4 4 2 1 5-19-2-19-5-19-7-10-6-6-4v-2h-4v-2l-4-2-2-2-1 1 2 1 2 7h2l4 6v3l-4-1-1-3-2-1v-2l-4-2-5-5v-3h-2l-9-19-3-7z" fill="#4F9D10"/>
<path transform="translate(962,979)" d="m0 0 2 1-3 10-2 7-6 2-2 9-3 2-5 11-3 3-1 2h-2l-1 4-7 9-3 6-4 2-2 5-4 2-1 4 8-1 2 1v2h2l1 3h-2l-1 5-5 2-1-3-5 1-7 3-6 5h-2v2l-3-1 6-10 3-3 14-19 7-9h2v-2h2l2-5 4-7 2-2 2-4 2-5h2l1-5h2l2-5 4-8h2l1-7h3l2-5z" fill="#032A28"/>
<path transform="translate(606,405)" d="m0 0h11l7 3 10 5 6 4 24 12 10 8 8 8 2 5h2l5 6v2l4 2 5 6-1 3-5-3-13-13-8-7-7-6-3-1-5-5-12-7-3-1v-2l-6-2-14-8-9-4v-2h-2v-2h-6z" fill="#0B172C"/>
<path transform="translate(683,568)" d="m0 0h1l1 6 1 4-2 6-2 15-1 1-1 19-1 10v42l4 10 3 11 2 6v10l4 10v2l2 2 2 7-4 1-7-19-5-19-3-19-3-31v-19l2-19 4-24z" fill="#08172C"/>
<path transform="translate(962,791)" d="m0 0h3v2l-8 3-8 2h-4l-1 2-13 3-4 2-12 3h-3l-1 2-10 2-14 4h-4l-1 2-7 1-22 6-15 4-8 3-20 5-21 6-28 7-13 3-1-2 28-8 29-8 23-6 24-7 25-7 27-8 40-10 15-5z" fill="#156C15"/>
<path transform="translate(502,531)" d="m0 0 1 2 4 1-14 7-15 11-8 8-6 7v-3l2-3-11 8-5 1-2 5-4 3h-2v-4l3-6 7-8 11-9 14-9 12-7 7-3z" fill="#BE093B"/>
<path transform="translate(1255,250)" d="m0 0h3v7l-3 7h-3l-1 5h-2l-2 6-7 5v-3l-10 6-9 5-4 3-6 3h-3l-1-4 9-9 6-1 1-3 9-6 1-4 16-10 4-5z" fill="#6EB511"/>
<path transform="translate(537,458)" d="m0 0h31l26 4 5 1-1 2h-32l-14-1-9 2h-16l-16 3-5 1-9-3 1-3 24-4z" fill="#08172C"/>
<path transform="translate(466,559)" d="m0 0 1 3-3 3-3 6-4 7h-5l-3 4h-2l-2 10-10 6-1 4-5-1 1 5-9-2 1-3h2v-6l10-13 8-11 2-1v4l-2 4 4-3h2l2-5h2l1-2h2l2-2 6-4 3-1z" fill="#E31445"/>
<path transform="translate(456,438)" d="m0 0h1l2 17v15l-3 14-5 11-7 10-8 9-5 4-6 1 1-5 5-2 2-4 6-8 2-4h2l2-6v-2h3l1-8 2-6 1-8-4 2 2-9 5-9 1-5z" fill="#277912"/>
<path transform="translate(418,814)" d="m0 0 18 2 33 3h37l25-2h7l1 2-9 2v2h-7l-4-1-1 1-15 2-3-1h-16l-1 1-10 1-7-2h-17l-15-3-1-1h-8l-5-2-8-2v-1h6z" fill="#09172C"/>
<path transform="translate(1195,236)" d="m0 0 2 1v2l2 1-6 3-3-1-28 10-15 7-18 10-10 8-13 13-1 3h-2l-2 5-4 5-7 11-5 3 1-6 7-11 7-10 5-5 8-9 4-3h2v-2h2v-2l8-4 6-4 11-6 15-7 25-9z" fill="#166D15"/>
<path transform="translate(558,332)" d="m0 0 5 2 11 7-2 4 3 7-1 5h2v2h2l2 5h3l2 6h-24l-8-1v-1l10-1v-8l-1-3-2-1 1-3-2-11z" fill="#3B9014"/>
<path transform="translate(1181,219)" d="m0 0h9l13 1 10 3 7 4-4 3-12 3-2-1-11-1-11 2-11-1-2-2v-4l3-3 7-2z" fill="#6DB511"/>
<path transform="translate(1123,800)" d="m0 0 3 1-12 7-9 5-8 6h-2v2l-7 4-9 6-1 2-5 1 1-8 6-11 2-1 1-4 21-6 17-3z" fill="#156D15"/>
<path transform="translate(1035,364)" d="m0 0h3l5 6 6 5 10 15 5 12 3 3 4 7-1 3-3-6-4-4-6-10-4-1-2 3h-2l-1 2 1 1v3l1 6-3-4-4-11v-3h-3l-4-10-2-14z" fill="#358813"/>
<path transform="translate(997,835)" d="m0 0 2 1-4 2-2 6-9 17-13 21-14 21-1-3 3-4 7-14 4-11 4-7 1-7h-2l2-5 6-12z" fill="#F3FDBA"/>
<path transform="translate(1114,291)" d="m0 0 1 3-2 5-10 10-12 17-6 12-1 3-3-1-3-4v-2l-3-1 1-2 2-3 1-3h2l1-6 3-4h3l7-10 4-6 6-1v-2l8-4z" fill="#2A7B12"/>
<path transform="translate(700,226)" d="m0 0 2 3 6 25 1 1 1 22 3 10v45l-2 10h-1l-3-25-1-5-2-1-2-9h-2v-7l2 3 5 12v-16l-4-46-3-17z" fill="#80C2C4"/>
<path transform="translate(1085,245)" d="m0 0v3l-3 4-6 9h-2l-1 5-2 2-3 15v15l1 6h2v14l-2 3h-2l-3-4v-2h-2l-4-7-1-6 2-12 6-16 8-15 8-10z" fill="#F4FAB5"/>
<path transform="translate(369,698)" d="m0 0h1l2 13 5 19 1 8-3 1 2 9 1 5 1 20v8h2l1 8 2 6 1 8h-3l-4-12-3-16-2-9-3-20-1-12z" fill="#E41345"/>
<path transform="translate(267,393)" d="m0 0 10 3 26 10 16 8 18 10 16 12 5 6-2 2-18-11-19-11-24-14-16-8-9-4z" fill="#D6F96E"/>
<path transform="translate(729,715)" d="m0 0h5l4 5 2 7h2l2 8h2l2 5 5 6 9 16 4 5-1 4-7-1-12-18-9-16-8-18z" fill="#F8FAF6"/>
<path transform="translate(1252,252)" d="m0 0 2 1-8 7-15 9-18 11-7 4h-2v2l-8 4-4 3h-3l-1 2-6 2-1 2v-4l5-6h4l2-4 3-1v-3l28-14 15-8z" fill="#F4FBDC"/>
<path transform="translate(516,199)" d="m0 0 14 1 7 2 10 2 12 4 5 3 17 5 2 1h7l1-2 6 2 12 7 13 11 5 7h-3l-34-20-21-7-9-2-8-3-27-8-9-2z" fill="#F0FEAE"/>
<path transform="translate(839,263)" d="m0 0h7l3 3-1 3h2l-2 4-2 5h-2l-1 3-2-1v2l-4 2-7 1-2-1v2l-7 1-1-5 3-3v-5l4-2v-3h5l1-3h2l1-2z" fill="#6DB511"/>
<path transform="translate(977,992)" d="m0 0 1 2-4 11-10 18-8 13-10 15-4 5h-2l-2 4-6 5 2-6 6-10 7-10 4-8h2l2-6 5-9 5-7 5-9 4-6z" fill="#D7FB6E"/>
<path transform="translate(486,947)" d="m0 0h28l3 2 1 3h14l1 9-1 22h-1l-1-15-1 4-1 15v26h-1l-1-10v-25l3-24h-28l-31-1-21-3 1 4-2-1v-4h8l5 1 18 1-1-2 6-1z" fill="#09172C"/>
<path transform="translate(664,1034)" d="m0 0h2v2l-10 5-11 3-5 1-13 2h-21l-3 1v2l5 2 4 3v3h2l-2 4 4 2 2 6 2 2v4h3l1 8-3-2-6-8-3-2v-3l-3-1-1-3-5-5-5-9-1-9 10 2 9-1 5-1 2 2 4-1h12l18-5z" fill="#E21645"/>
<path transform="translate(571,456)" d="m0 0 14 1 15 2 30 8 10 5 9 7 5 2-4 1-16-5-19-8-21-6-26-4-28-1v-1z" fill="#72082F"/>
<path transform="translate(454,956)" d="m0 0 9 1 2 4 2 1v3l4 2v2l7 7 3 4-1 2 4 2v2h2l1 8 7 7-1 4-6-4-7-7-21-27-3-7z" fill="#D51142"/>
<path transform="translate(825,988)" d="m0 0h1l1 17-2 23-2 11-2 8h2l1-3 1 2-9 13-2 1v-20l5-22 2-8 1-11 2-1z" fill="#062A2E"/>
<path transform="translate(824,961)" d="m0 0 3 1 7 11 3 8v6h-1l-2-6-1 3-3 33-2 14-2-2v-32l-1-15-2-18z" fill="#2A7B12"/>
<path transform="translate(449,461)" d="m0 0 1 3-9 16-3 5-6 9h-2l-2 5-2 4-7 5-6 10h-2l-2 6h-2l1-5h2l3-9 10-21 8-12 8-10 1 2-6 12-1 3h2l1-4h2l1-3h2l1-4z" fill="#6CB410"/>
<path transform="translate(588,352)" d="m0 0 7 1 15 8 8 3 14 7 15 2v1h-29l-8-1 2-2-4-1v-3l-10-1-8-4-2-9z" fill="#2A7C12"/>
<path transform="translate(830,906)" d="m0 0 1 2 4 2-1 5-3 8h-2l-2 5-4 4-3 9-2 3-4-8v-2l-4-1 4-7 6-11 5-8 4 1z" fill="#032B28"/>
<path transform="translate(261,389)" d="m0 0 6 1-3 1 2 9 7 15 3 6v2h2l5 9 9 11 10 11 6 5-4 2-1-2-4-1v-2l-6-3v-2l-6-2-2-5-6-9-3-1-1-3v-2l-1-3 1-2h-2l-7-11-2-9-3-5-1-8z" fill="#05282D"/>
<path transform="translate(1018,314)" d="m0 0h1l1 8-1 2v26l1 16 6 26 4 11 7 15-3 1-6-4-1-10-3-8-7-22-2-12-1-11v-11l2-21z" fill="#D9F454"/>
<path transform="translate(442,456)" d="m0 0 1 3-8 9-10 16-9 16-6 16-4 9-3 1 2-20 1-7 2 3 3-3 3-9 7-11 3-4h2l2-5z" fill="#D9FF76"/>
<path transform="translate(823,288)" d="m0 0h5v2l2 1-1 1-16 1-2 6-8 16-12 20-4 5-3 5-7 11-5 6-1-3 10-18h2l2-5 9-17 5-8 7-14 5-5 2-3v2z" fill="#2C7F13"/>
<path transform="translate(486,445)" d="m0 0h2l4 4v2h2v2h12l5 1 3 3 3-1-1 3h-4v2l-10 2h-4v2l-6 1h-8l-1-3v-16z" fill="#EC1247"/>
<path transform="translate(650,368)" d="m0 0 4 2 6 10 10 12v3l3 1 1 3 10 10 8 11 3 8-4-2-7-7-3-4v-2l-4-2-5-6v-2l-3-1-2-4-4-3-2-4-5-5v-3l-3-1v-3l-3-1 1-3 4 2z" fill="#318714"/>
<path transform="translate(592,409)" d="m0 0 15 2v1l-9 1v1l-14 2v1l-7 1-21 1-6 2h-5v2l-13 1v2h-4v-2l6-1v-2l8-2 6-1-6-1 2-2 14-2 2-1 29-2z" fill="#FEFCE2"/>
<path transform="translate(929,417)" d="m0 0h21l13 2 5 1v2l2 1-27-1-23 1-17 2-25 7-27 10-5 2v-2l9-4 10-4 17-6 16-5 12-2z" fill="#FCFFDC"/>
<path transform="translate(1013,321)" d="m0 0h1l-1 9-2 10v11l4 16 2 15 1 10h-4l-1 2-5-15-1-5v-31l5-21z" fill="#FCFEE2"/>
<path transform="translate(370,454)" d="m0 0 4 5 6 10v4l-7 2-7 1h-10l-9-1v-1h16l11-1-12-4-6-1-7-3 2-5 6-3 12 2z" fill="#277912"/>
<path transform="translate(659,356)" d="m0 0 4 4 1 4h2l3 5v2l2 1h-3l-2 7 1 9-5-4-4-5-5-9-3-2-2-8h2v-2h5z" fill="#114841"/>
<path transform="translate(1023,342)" d="m0 0 5 5 9 11 2 2 3 7 2 4-6-5v-2h-3l1 10 2 10 2 7h3l3 7 3 9 1 6-3-4-5-13v-2h-2l-8-17-4-9-2-10-2-9z" fill="#57A310"/>
<path transform="translate(312,360)" d="m0 0 2 1 30 1 22 4 12 4 5 3 8 4 5 1 3-1 1-2 4 1 5 5 5 4 1-2 4 8v2l-5-1-16-9-19-9-17-6-14-3-9-1h-27l-9 2 1-3z" fill="#D6EF48"/>
<path transform="translate(1057,725)" d="m0 0 4 1-4 4-14 4-21 5-18 6-13 4-6 3h-7l1-2 9-2 2-4 12-4 11-2 8-3 26-8z" fill="#9DD536"/>
<path transform="translate(795,295)" d="m0 0 5 1 2 1 1 5-3 9-3 5-4 7-5 9-4 3-1-1 1-7 2-8 5-12 3-11z" fill="#062A25"/>
<path transform="translate(842,1058)" d="m0 0 1 2h2l-1 5-9 15-2 4h-2l-2 7-7 11-1 3 4 1h-4v2l-5-1 2-5 3-5 2-13h2l1-5h2l1-4 4-4 2-1 2-7 3-4z" fill="#05282E"/>
<path transform="translate(647,887)" d="m0 0 3 2h-2l-1 2-26 2-9 1h-8l-10 1-4-1h-13l-7 1h-22v-1l19-3 7-2h6v1l-5 1h24l13-2z" fill="#3C9214"/>
<path transform="translate(350,392)" d="m0 0 5 1 9 4 9 5 15 11 7 7-1 2-3-2-4-2-7-6-2-1 2 5-4-2-11-8-12-7-4-2-1-4z" fill="#10483A"/>
<path transform="translate(816,536)" d="m0 0 7 1 5 5v7l-4 5-3 2h-7l-5-7 1-6 2-4z" fill="#FCFEDE"/>
<path transform="translate(983,1044)" d="m0 0h2l-3 6h-2v2h-3l-1 3-15 9-18 10-8 4-1-2 2-2 3 1 1-3 5-4-13 6-2-1 4-3 10-4 16-9 11-6z" fill="#072F31"/>
<path transform="translate(621,1055)" d="m0 0 13 4 16 3h24l-4 2-14 1-23-2 1 5 15 9 13 4 7 3v1l-9-1-15-5-6-4-5-3-8-7-4-3v-2l-3-1z" fill="#9E0937"/>
<path transform="translate(954,92)" d="m0 0 4 1-24 8-6 3h-3v2l-21 8-16 8-7 4-11 6 2-4 4-2v-2l12-7h2v-2l21-9 16-5 10-4z" fill="#F0FEAD"/>
<path transform="translate(969,803)" d="m0 0h6l-3 3h-2l-3 3-48 14-10 3-5-1 1-3 3 1v-2l4-1 1-1 7-1 5-1v-2l11-2 7-2h3l1-2v2l5-2 1-2 13-2z" fill="#308313"/>
<path transform="translate(978,1033)" d="m0 0 3 1-11 8-12 7h-2l-1 5h-2v2h-2v2l-9 1-4 7-3 3h-2v3l-6 4h-3l2-5 5-10 1-4 2-1 1-3 3-1-2 5-3 7 7-8 4-1 5-7 5-3 3 1 12-6 7-5h2z" fill="#388A13"/>
<path transform="translate(792,248)" d="m0 0 1 4h2l1 27v13h2v-2l3-1 1-2h2v3l4 2-1 5-5 9-1-2 1-7-7-2-1-13-2 3-2-5v-27z" fill="#062C2D"/>
<path transform="translate(871,1035)" d="m0 0v3l-20 28-4 6-4 4-2 5-6 4-3-1 6-11 8-14 8-4v-2h2l2-4 5-4 6-8z" fill="#F3FCB5"/>
<path transform="translate(452,435)" d="m0 0h3v5l-7 10-4 6-7 4-6 4-5 2-5 5-2-1 9-10 14-15z" fill="#F5FBE2"/>
<path transform="translate(735,581)" d="m0 0 1 2-6 28-2 13-1 33-2-1-1-10v-21l2-25h2v-7l4-10z" fill="#FDFFE4"/>
<path transform="translate(1045,457)" d="m0 0 7 1 19 5 6 4 5 2 4 5-3 2-2 1-10-5-21-6 2-1 1-4-5-2z" fill="#10172C"/>
<path transform="translate(557,455)" d="m0 0h29l15 2 28 8 12 6 2 3-5-2-8-4-30-8-24-3-36 1-10 2-21 3-11 1 4-2 24-4 13-2z" fill="#9E0937"/>
<path transform="translate(597,412)" d="m0 0h10l10 2h8l12 7-2 1-12-5h-7l-13 2-39 1-14 1 6-3 21-1 5-1v-1l15-2z" fill="#FE947E"/>
<path transform="translate(325,382)" d="m0 0 10 3 14 5 1 3h-2l2 4 3 2h-3l3 6-9-3-7-4-5-5-6-3-1-2 3-2-5-2z" fill="#042323"/>
<path transform="translate(539,518)" d="m0 0h15l-1 2-9 1v2l-6 2-5 1-6 2-16 4-2 1h-6l-5-1 3-2 22-8z" fill="#E01244"/>
<path transform="translate(472,177)" d="m0 0 12 1 36 7 2 3h-12l-24-3-12-1-5-5z" fill="#F6FAF8"/>
<path transform="translate(1169,693)" d="m0 0h5l-1 3-9 3-8 3-30 9-7 2h-8v-2l7-3 16-4 14-4 8-3z" fill="#62AC11"/>
<path transform="translate(1150,326)" d="m0 0h9l3 1 1 5-6 6-1 2h-9l-5 2h-4l-1-4 7-6 3-4h3z" fill="#3C9214"/>
<path transform="translate(537,492)" d="m0 0h22l19 3 20 6 21 8 4 2v2l-9-3-17-6-24-6-2-1-27-2-9-1z" fill="#FEE3CA"/>
<path transform="translate(832,450)" d="m0 0v3l-21 14-11 9-7 7-9 11-5 4 1-4 9-12 7-7 3-6 4-4 8-4 5-3 6-2z" fill="#FDFFE0"/>
<path transform="translate(837,826)" d="m0 0 2 1-2 3-27 7-21 6-28 7-13 3-1-2 28-8 29-8 23-6z" fill="#156C15"/>
<path transform="translate(1077,243)" d="m0 0 5 3-1 4-9 12-3 6h-4l-2-4v-6l3-4 1-4 5-5z" fill="#072732"/>
<path transform="translate(305,433)" d="m0 0 5 2 16 8 11 4h2l-1-6 6 1 6 4 10 2v2l5 1-2-4 4 2 1 5-19-2-19-5-19-7-5-5z" fill="#6BB310"/>
<path transform="translate(991,86)" d="m0 0h6l1 4-5 7-2 1-3 6h-2l-2 4-4 1-1-4-2-1 3-6 7-9z" fill="#6DB511"/>
<path transform="translate(921,1057)" d="m0 0 4 1v2h2l1 3h-2l-1 5-5 2-1-3-5 1-7 3-6 5h-2v2l-3-1 4-7 3 1 2-4 4-2 2-5 4-2z" fill="#05282D"/>
<path transform="translate(580,972)" d="m0 0h1l1 27 3 19 7 20 7 13 5 9-1 2-5-6-4-7-4-6-6-15-3-9-1-7-1-31z" fill="#FEFFE5"/>
<path transform="translate(765,904)" d="m0 0h5l3 5 2 6 14 16 3 10 6 11-1 2-2 1-10-21-12-17-9-9-8-2v-1z" fill="#08172C"/>
<path transform="translate(1035,364)" d="m0 0h3l5 6 6 5 10 15 2 6-3-3-7-11-5-3-3 1-1 4h-2l1 7-2-2-3-8-2-14z" fill="#3E9314"/>
<path transform="translate(830,135)" d="m0 0h4l1 4h-2l-1 4h-2l-1 5-5 5-6 7-4 1-2-5 3-4v-3l2-1v-2h3l1-3 4-2 1-3 3-1z" fill="#04262C"/>
<path transform="translate(378,411)" d="m0 0 5 2 1 3 4 2 5 2 5 3 6 8 2 6v1l-1 2-4-1v-3l-5-2-12-14-5-5z" fill="#318513"/>
<path transform="translate(1097,806)" d="m0 0h7l-3 3h-2l-1 4-5 3-12 9h-4l-1 2 1-6 3-6 2-1 1-4z" fill="#277912"/>
<path transform="translate(582,775)" d="m0 0h2l-2 5-9 12-5 5-7 6-2 4h2v2h9l1 2-16 2v-3l-1-2h2v-3l-2-1 1-6h2l1-2 4 1v-2l4-1 1-3 6-2 2-4 3-5 1-2z" fill="#E31445"/>
<path transform="translate(540,457)" d="m0 0h32l22 3 19 5 11 4 8 4 15 5 7 3-4 1-16-5-19-8-21-6-26-4-28-1z" fill="#63082D"/>
<path transform="translate(1007,333)" d="m0 0h2l-1 10v31l1 9-2-3-3-19h-3l-2 3v-11l2-11 3-4h2z" fill="#1C462C"/>
<path transform="translate(661,296)" d="m0 0 2 3 4 13 3 15 1 11v33h-2l-3-4v-3h-2l-4-6-2-5 1-3 3 5v2h2l2 3h2v-25l-3-21-4-14z" fill="#2C8214"/>
<path transform="translate(423,396)" d="m0 0 3 3 4 10v6l-5 5-9 8v-3l2-2 3-20z" fill="#388E15"/>
<path transform="translate(857,139)" d="m0 0 2 1-11 11-7 6-3 3-2 4h-2l-2 4-9 12h-2l-2 4-7 12h-2l1-4 10-19 5-5 10-9 11-11 8-7z" fill="#D9F65B"/>
<path transform="translate(1252,252)" d="m0 0 2 1-8 7-15 9-18 11-7 4h-2v2l-6 2 2-4 7-2v-2l7-4h2v-2l11-8 10-5 1-2z" fill="#F0FFAF"/>
<path transform="translate(1016,312)" d="m0 0 2 1-1 7-2 21v11l1 18-2-3-4-16v-11l3-14 1-9z" fill="#F0FCBC"/>
<path transform="translate(531,817)" d="m0 0h7l1 2-9 2v2h-7l-4-1-1 1-15 2-4-2-29-1v-1l34-1 2-1z" fill="#071B2F"/>
<path transform="translate(876,191)" d="m0 0 2 1-4 3-4 2v5l-5 4-7 8-8 8h-3l2-5 8-10 1-2-2-1 11-8z" fill="#2A7C12"/>
<path transform="translate(1103,712)" d="m0 0h7l-1 2h-2v2l-16 4-9 3-12 2h-9l3-3 17-4 15-4z" fill="#61AB10"/>
<path transform="translate(607,524)" d="m0 0 7 1 24 7v1h-8l-5-1-2 1 2 10 4 6v2h-2v-2h-2l-3-6-2-1-4-8-3-3-3-2 1-2h-3z" fill="#E31345"/>
<path transform="translate(986,746)" d="m0 0h3l-1 3-9 2-7 3h-6v2l-6 2h-7v2l-16 5h-3l1-3 8-1v-3l26-7z" fill="#D9F149"/>
<path transform="translate(1133,792)" d="m0 0h12l-2 1v2l-7 2h-4v2l-9 2h-15l-9 2-1-3 14-3 12-2z" fill="#05272D"/>
<path transform="translate(665,457)" d="m0 0 9 3v2l6-1 4 2v2l4 2v4h-4l-1 2h-2l1 7h-3l-1-6-9-11-4-4z" fill="#E31445"/>
<path transform="translate(564,419)" d="m0 0h23l-2 4-21 1v2l-3 1-1-2h-3l-1 3-4-1 2-5-3 1-6-1v-1z" fill="#F8144A"/>
<path transform="translate(819,917)" d="m0 0 1 3v2l2 1 2 8-4 10-2 3-4-8v-2l-4-1 4-7z" fill="#062B2C"/>
<path transform="translate(405,503)" d="m0 0 1 3-2 18-1 2 3-2h3l1-4 1-2h2l2-5 4-6 5-4h2l-1 3h-2l-1 4-4 7-3 9-8 2h-5v-10l2-13z" fill="#398913"/>
<path transform="translate(595,224)" d="m0 0 9 2v-2h5l13 11 5 7h-3l-29-17z" fill="#D9FD71"/>
<path transform="translate(434,487)" d="m0 0 1 3-3 4h-2l-2 5-2 4-7 5-6 10h-2l-2 6h-2l1-5h2l3-9 3-3 4-8 3-5 4-1 3-3z" fill="#55A210"/>
<path transform="translate(1139,348)" d="m0 0h10l-1 3v3h-3l1 3-5 1-1 2h-2l-2-3h-6l-1-4 2-4h7z" fill="#3C9215"/>
<path transform="translate(449,950)" d="m0 0 11 1 10 1 59 2v9l-1 5h-1l-1-12h-16l-31-1-21-2-9-2z" fill="#6A082E"/>
<path transform="translate(437,463)" d="m0 0v3l-8 11-8 14-8 16-5 15h-1l1-11 3-8 6-13 5-7 3-5 6-8z" fill="#D9F149"/>
<path transform="translate(261,389)" d="m0 0 6 1-3 1 2 9 7 15 3 6v2h2l-1 2-4-1-7-11-2-9-3-5-1-8z" fill="#09332C"/>
<path transform="translate(312,360)" d="m0 0 2 1 30 1 22 4 12 4 5 3 9 5-2 1-11-5-17-6-14-3-9-1h-27l-9 2 1-3z" fill="#D9F149"/>
<path transform="translate(1169,304)" d="m0 0 2 1-11 8-5 5-9 8-8 6-8 9-3 3h-2l1-4 8-11 7-3 11-10z" fill="#D2F76E"/>
<path transform="translate(1057,725)" d="m0 0 4 1-4 4-14 4-17 4-2-1 1-3 18-6z" fill="#83C32A"/>
<path transform="translate(870,1038)" d="m0 0h3l-2 5-13 17-4 7-5 9-6 4-2-1 3-5 5-6 8-12 9-12z" fill="#D9F659"/>
<path transform="translate(423,421)" d="m0 0m-2 1 2 1-7 7v3l-1 4h-2l-2 4-5 5-5-2-4-3-2-8 6 3 1 3h3v-3l3 1 3-5 5-5z" fill="#08302F"/>
<path transform="translate(693,730)" d="m0 0 5 1-1 3h2l3 9 3 3 3 7v5h2l2 6v3l-1 2-10-19-8-17z" fill="#08172C"/>
<path transform="translate(825,268)" d="m0 0 2 1v3l-3 2-1 7-2 4v2l7-1v-2h8l3 2-24 5h-2l1-5 10-17z" fill="#85C414"/>
<path transform="translate(1062,759)" d="m0 0h5l-1 3-9 5-5 1-9 2-11 2-7 1 2-2h3v-2l6-2h7v-2l12-3 1-1h6z" fill="#186F15"/>
<path transform="translate(547,535)" d="m0 0 4 2 6 8 1 4v8l-4 11-7 8-10 9-8 7-8 8v-3l4-5 24-21 5-10 1-4v-11l-2-5h-2l-4-4z" fill="#FDFFE3"/>
<path transform="translate(664,1034)" d="m0 0h2v2l-10 5-11 3-5 1-13 2h-17l-4-2 1-1 9-1 5-1 2 2 4-1h12l18-5z" fill="#E31345"/>
<path transform="translate(1070,835)" d="m0 0h5l-2 5-12 20-5 2 3-9 3-6h2l2-6z" fill="#DBFB77"/>
<path transform="translate(1156,701)" d="m0 0h5l1 5-4 2v2l-5 1-5-1-4 2h-4l1-4 5-1 1-3z" fill="#2B7C12"/>
<path transform="translate(817,505)" d="m0 0 3 3 1 3v10l-3 8-5 6-1-3 1-2v-9l4-8-1-7z" fill="#FCFFDE"/>
<path transform="translate(674,403)" d="m0 0 3 2h3l7 8 5 7 3 8-4-2-7-7-3-4v-2l-4-2-5-7z" fill="#247713"/>
<path transform="translate(550,536)" d="m0 0 4 2 4 6 1 3v11l-3 10-6 8-2 3-5 3-10 8-12 12v-3l14-14 11-9 7-8 4-11v-8l-3-7z" fill="#FF957F"/>
<path transform="translate(668,372)" d="m0 0h3v11l1 2 1 6 6 8v3l-5-2-2-4-2-1-3-5-2-12z" fill="#072E2F"/>
<path transform="translate(1042,883)" d="m0 0 1 3-8 13-7 11-13 21-7 10-2-1 20-32 11-18z" fill="#EFFDAF"/>
<path transform="translate(804,903)" d="m0 0 3 1 1 3 3 1 1 6h-2l1 3-7-1 1 8-3-2-6-10 5 2v-9z" fill="#398F14"/>
<path transform="translate(1231,289)" d="m0 0h3l1 3-6 8-5 2-5 1v2h-8l2-4 4-1 1-2 5-2z" fill="#378913"/>
<path transform="translate(1191,220)" d="m0 0h14l12 5 3 3-6 1-9-1-9-4z" fill="#8AC715"/>
<path transform="translate(941,759)" d="m0 0h2v2l-8 2-1 3-21 6-5-1 3-4 21-6z" fill="#D1F45B"/>
<path transform="translate(791,327)" d="m0 0 2 2-3 7-6 9-7 11-5 6-1-3 10-18h2l2-5 4-8z" fill="#378C14"/>
<path transform="translate(526,968)" d="m0 0h1v35l3 21 1 9-3 1-6-4 2-1 3 2 1-6-3-16-1-9v-21z" fill="#6A082E"/>
<path transform="translate(1007,832)" d="m0 0h4l-2 6-2 4-3 1v1h-6v-2l-5 2 1-4 5-5z" fill="#D8FD74"/>
<path transform="translate(977,842)" d="m0 0 3 1-8 16-3 4h-6l-2-2 4-1v-7l5-1 2 1v-4h2v-5z" fill="#062732"/>
<path transform="translate(1123,507)" d="m0 0 4 4 4 5 12 24 3 19-2-1-3-9-2-11-4-7-6-12-2-1-2-8h-2z" fill="#09172C"/>
<path transform="translate(308,410)" d="m0 0 5 1 21 11 11 8 1 2-6-2-12-6-11-7-9-6z" fill="#E1F4C0"/>
<path transform="translate(887,939)" d="m0 0h2l-2 7-13 19-2 3h-2l2-7 4-9 2-4 4-1z" fill="#81C114"/>
<path transform="translate(405,456)" d="m0 0 3 1 1 3 2-2h2l1 6h-3l-1 3-2-1-1 4-3 1-2 4-2-1 2-9v-5z" fill="#05262D"/>
<path transform="translate(795,279)" d="m0 0h1v13h2v-2l3-1 1-2h2v3l4 2-1 5-5 9-1-2 1-7-7-2z" fill="#114842"/>
<path transform="translate(557,455)" d="m0 0h19v1l-5 1-31 1-10 2-21 3-11 1 4-2 24-4 13-2z" fill="#980835"/>
<path transform="translate(974,174)" d="m0 0 1 3-6 12-4 7-4 4-5 6-4 1 2-4 2-3h2l1-4h2v-3h2l1-4 8-13h2z" fill="#2E7F12"/>
<path transform="translate(639,479)" d="m0 0 7 1 13 3 20-1-1 3-13 2h-13l-8-5-5-2z" fill="#08192D"/>
<path transform="translate(1220,227)" d="m0 0 4 1-1 3-18 8-3 1v-3l-6 1 2-3 10-4 10-3z" fill="#146B15"/>
<path transform="translate(757,68)" d="m0 0h5l6 7 2 5v3h-6l-2-1 1-6-2 2-2-4-5 1 2-5z" fill="#204647"/>
<path transform="translate(842,1058)" d="m0 0 1 2h2l-1 5-9 15-3 4-2-2 4-7 1-7 4-9z" fill="#0C312F"/>
<path transform="translate(553,453)" d="m0 0h29l18 2 8 3-4 1-7-2-11-1h-39l3-2z" fill="#B9083A"/>
<path transform="translate(1026,353)" d="m0 0 2 3 2 9 10 24v2h3l3 7 3 9 1 6-3-4-5-13v-2h-2l-8-17-4-9-2-10z" fill="#64AE11"/>
<path transform="translate(591,215)" d="m0 0 6 2 10 6-3 1v2l-6-1-13-5-2-2 7-1z" fill="#F3FFB6"/>
<path transform="translate(1046,465)" d="m0 0 9 1 16 5 17 9 1 3-5-1-6-4-3-1-1-2-9-2-19-6z" fill="#FC8440"/>
<path transform="translate(823,288)" d="m0 0h5v2l2 1-1 1-16 1-2 6-5 9-2-4 2-7 5-5 2-3v2z" fill="#3E9113"/>
<path transform="translate(856,942)" d="m0 0h2l-2 5-9 14-7 10-2 7-3-1-1-4 2-1 5-10 3-1v-2h2l2-5 6-9z" fill="#D9FA67"/>
<path transform="translate(942,857)" d="m0 0 1 3-1 1v6l-4 5h-2v3l-4 1-2 5-5 5h-2l2-5 11-15z" fill="#062934"/>
<path transform="translate(613,933)" d="m0 0h5l-1 2-3 1 6 1v2l-24 5-3 1-1-2 9-3h3l-1-4z" fill="#0F162C"/>
<path transform="translate(331,385)" d="m0 0 7 1 12 5v2h-2l1 4-15-5-1-5h-2z" fill="#052F28"/>
<path transform="translate(705,918)" d="m0 0h11l8 11 7 10 1 4-3-2-4-7-8-9v-2h-2l-1-2h-11l-17 4h-5l4-2z" fill="#950835"/>
<path transform="translate(418,814)" d="m0 0 18 2 15 2 2 2h-8l-12-1-8 1-5-2-8-2v-1h6z" fill="#09172C"/>
<path transform="translate(1108,800)" d="m0 0h10l3 2-21 4-13 4-4-1h3v-3z" fill="#093733"/>
<path transform="translate(801,976)" d="m0 0 2 3 1 2v26l-4 20-2 7h-2l-1 4-1-2 5-18 3-18v-13z" fill="#09172C"/>
<path transform="translate(991,837)" d="m0 0 2 1-8 10-6 2-2 4h-2l3-9 3-5z" fill="#FAF9DE"/>
<path transform="translate(362,404)" d="m0 0 6 3 13 10 8 7 4 5-1 2-9-9-21-14z" fill="#042425"/>
<path transform="translate(406,499)" d="m0 0 2 4 5-4-1 4-3 8-2 13-4 2 2-20z" fill="#DAFC78"/>
<path transform="translate(604,1062)" d="m0 0 5 3 1 3 2 1 1 3 6 5 3 5-4-1-10-7-5-5 3-1z" fill="#FDD4BC"/>
<path transform="translate(1e3 943)" d="m0 0 1 2-8 13-9 14-7 10-2 4h-2l2-5 7-11 10-15 6-10z" fill="#EAFBA6"/>
<path transform="translate(739,556)" d="m0 0h3l1 4-6 18-3-4v-7h2l1-9z" fill="#FDFFE2"/>
<path transform="translate(650,368)" d="m0 0 4 2 6 10 7 8 1 6-7-6-2-4-9-6 1-3 4 2z" fill="#3C8D12"/>
<path transform="translate(1129,268)" d="m0 0 5 1-2 4h-3v2l-5 3h-2v2l-9 5 1-4 8-8z" fill="#328412"/>
<path transform="translate(1162,307)" d="m0 0 2 1-14 11-10 9-5 1 6-9 6-3 9-6z" fill="#F3FDBF"/>
<path transform="translate(1145,327)" d="m0 0h5l-9 9-8 6-4 2 2-5 7-8 3-3z" fill="#51A013"/>
<path transform="translate(660,677)" d="m0 0h1l-1 8-5 23-7 24h-1v-6l4-13 2-10 2-5 4-20z" fill="#9E0937"/>
<path transform="translate(714,614)" d="m0 0h1v25h2l1 3v14l-1 7h-1l-2-17z" fill="#BBDFD5"/>
<path transform="translate(451,540)" d="m0 0h3l-2 4-10 6-15 5h-2v-2l9-4 14-7h3z" fill="#FDE3CA"/>
<path transform="translate(423,396)" d="m0 0 3 3 4 10v6l-6 1v-10l-1-1-2 2 1-7z" fill="#459511"/>
<path transform="translate(391,419)" d="m0 0 6 3 7 9 2 6v1l-1 2-4-1-2-7-3-4v-2h-2l-3-4z" fill="#1D721A"/>
<path transform="translate(795,295)" d="m0 0 5 1 2 1v3h-4v3h-2l-2 5-3 6-4 4 2-7 4-10z" fill="#032A28"/>
<path transform="translate(1193,282)" d="m0 0h2v2l-7 6-8 6-4 2h-3l2-5 13-8z" fill="#F4FAF7"/>
<path transform="translate(1025,397)" d="m0 0 1 2h2l9 19-3 1-6-4-1-10-2-4z" fill="#D4F763"/>
<path transform="translate(937,1052)" d="m0 0v3l-4 9 6-5-2 5-7 8-6 4 2-5 5-10 1-4 2-1 1-3z" fill="#6AB212"/>
<path transform="translate(1082,276)" d="m0 0 1 2-6 13-3 14v15l3 5v4l-3-1-2-4v-22l3-12z" fill="#D9F149"/>
<path transform="translate(864,933)" d="m0 0 1 2-6 11-12 18-4 5-3 5-1-3 11-16 13-21z" fill="#8DC915"/>
<path transform="translate(1124,311)" d="m0 0h5l1 2-2 3h-2l-1 4h-4v2h-2v3h-6v-3l8-6 1-3h2z" fill="#05262D"/>
<path transform="translate(833,164)" d="m0 0v3l-10 13h-2l-2 4-7 12h-2l1-4 6-11 5-5z" fill="#D9F14C"/>
<path transform="translate(807,796)" d="m0 0 3 1-1 3h-2v2l-13 3-3-1 1-4 9-2z" fill="#D3F661"/>
<path transform="translate(635,375)" d="m0 0h12v3l4 2 4 6-5-2-8-4-8-3z" fill="#032426"/>
<path transform="translate(974,840)" d="m0 0h7l-1 2-5 3-1 4h-2v4l-6-2v-5l4-3h2v-2z" fill="#042123"/>
<path transform="translate(853,995)" d="m0 0 1 3-2 9-4 4-3 5-4 4-2-1 5-9 8-13z" fill="#08342D"/>
<path transform="translate(367,839)" d="m0 0 10 2 9 3-2 2-8 1-7-2z" fill="#EDFAB8"/>
<path transform="translate(1073,818)" d="m0 0 5 1-2 6-4 10h-2l-2-4 2-7z" fill="#06312D"/>
<path transform="translate(962,791)" d="m0 0h3v2l-8 3-8 2h-4l-1 2-13 2 1-2 16-5z" fill="#146B15"/>
<path transform="translate(450,535)" d="m0 0h2v2l2 1-3 4-8 4h-6l1-3h3v-2l5-2 1-3z" fill="#15182D"/>
<path transform="translate(1010,64)" d="m0 0 2 1 1 5v27h-1l-1-17-3 1-1-6z" fill="#257913"/>
<path transform="translate(590,211)" d="m0 0 16 8 8 6-2 2-13-8-11-6z" fill="#1B4A1E"/>
<path transform="translate(1030,192)" d="m0 0 2 1-1 6-8 18-3 6-2-1 1-4 2-4 3-8h2l1-5 2-5z" fill="#1C4A48"/>
<path transform="translate(1006,64)" d="m0 0h4l-2 5-2 2-2 7-2 13h-1v-11h-2l2-9 4-4z" fill="#6BB311"/>
<path transform="translate(740,966)" d="m0 0 2 4 1 13-1 12-2 9-4 5 2-10 2-9z" fill="#72082F"/>
<path transform="translate(778,842)" d="m0 0 4 1-1 2-31 8-3-1 4-2z" fill="#1B7115"/>
<path transform="translate(825,1021)" d="m0 0h1l2 10v3l-3 10-2 3h-2v-6l2-6z" fill="#1B7114"/>
<path transform="translate(1089,482)" d="m0 0 6 4 14 14 1 5-6-5-3-5-4-3v-2l-4-1-5-4z" fill="#EB5D05"/>
<path transform="translate(1172,217)" d="m0 0h15l16 3v1l-22-1-13 1 1-3z" fill="#D9F453"/>
<path transform="translate(749,805)" d="m0 0 5 1-2 1-1 3-13 4-4-1h2v-3h6v-3z" fill="#174327"/>
<path transform="translate(620,793)" d="m0 0 1 3-1 3 5-1h7l2 2h-6v2l-10 2-4-1z" fill="#920835"/>
<path transform="translate(426,439)" d="m0 0 3 1-2 4-5 5-6 5-2-4 2-5h6l1-4h2z" fill="#05262D"/>
<path transform="translate(1169,304)" d="m0 0 2 1-11 8-5 5-9 8-2-1 7-8 13-10z" fill="#D9F556"/>
<path transform="translate(1012,310)" d="m0 0h5v3l-2 4-3 9-2-2-2-6 3-7z" fill="#072F2B"/>
<path transform="translate(264,394)" d="m0 0 5 4 8 8 1 4-5-1-3-1-1-6-4-2z" fill="#5FAA11"/>
<path transform="translate(749,1088)" d="m0 0 4 1-13 8-13 5-3-1 16-8z" fill="#8B0833"/>
<path transform="translate(458,953)" d="m0 0 43 2-2 2-36-1-5-2z" fill="#9E0937"/>
<path transform="translate(986,746)" d="m0 0h3l-1 3-9 2-7 3h-10l3-2z" fill="#D7F55A"/>
<path transform="translate(581,278)" d="m0 0 5 1 1 3 6 2 2 4-5 1-8-6z" fill="#115135"/>
<path transform="translate(1085,245)" d="m0 0v3l-3 4-6 9h-2l-1 5-5 4 2-6 9-13z" fill="#F2F4AC"/>
<path transform="translate(452,435)" d="m0 0h3v5l-7 10-4 6-1-4 6-10z" fill="#EAFCA9"/>
<path transform="translate(1114,291)" d="m0 0 1 3-5 5-4 3h-2v2h-2l-3-3v-2l6-1v-2l8-4z" fill="#348612"/>
<path transform="translate(942,853)" d="m0 0h3l-2 4-6 9-1-3 1-5-8-1 4-2z" fill="#4B9A11"/>
<path transform="translate(453,434)" d="m0 0h3l1 13-3 7-3 5h-1v-7l3-7 2-10z" fill="#60AA16"/>
<path transform="translate(661,296)" d="m0 0 2 3 4 13 3 15v7h-2l-3-20-4-14z" fill="#2B8115"/>
<path transform="translate(820,1041)" d="m0 0h1v6h2l1-3 1 2-9 13-2 1 2-9z" fill="#114842"/>
<path transform="translate(1082,807)" d="m0 0 3 2h-2v5l-3 1-1 4-4 1-1-4 4-7h4z" fill="#062C26"/>
<path transform="translate(1076,404)" d="m0 0 2 4 3 17v7l-4-1-4-5-2-5 1-3 6 10-1-13z" fill="#358914"/>
<path transform="translate(1024,913)" d="m0 0v3l-11 18-5 7-2-1 10-16 6-10z" fill="#F0FDB1"/>
<path transform="translate(624,840)" d="m0 0 4 1-3 4-6 1h-12l1-2z" fill="#D4FC71"/>
<path transform="translate(1049,820)" d="m0 0h3l-2 4-7 10-2-2 1-5 2-6z" fill="#318714"/>
<path transform="translate(305,433)" d="m0 0 5 2 16 8 13 5-3 1-20-7-6-3z" fill="#60AB10"/>
<path transform="translate(683,409)" d="m0 0 4 4 5 7 3 8-4-2-7-7v-6z" fill="#145F26"/>
<path transform="translate(1252,264)" d="m0 0h2l-2 7-3 8-11 4 1-3 8-6 2-5h2z" fill="#4B9A11"/>
<path transform="translate(980,225)" d="m0 0 2 1-4 8h-2v2l-9 7-2-1 8-9 4-6z" fill="#062B2D"/>
<path transform="translate(990,782)" d="m0 0h7l-1 2-22 6h-3v2h-3l-1 2-1-3 8-4 12-3z" fill="#146B15"/>
<path transform="translate(1075,719)" d="m0 0h7l-4 3-2-1v3l-6 1h-9l3-3z" fill="#88C62E"/>
<path transform="translate(1045,457)" d="m0 0 7 1 10 3v1l-5 1 2 3 3 1v2l-12-3 2-1 1-4-5-2z" fill="#14172B"/>
<path transform="translate(952,1049)" d="m0 0h4l-1 5h-2v2h-2v2l-5 1-3-2z" fill="#2A7B12"/>
<path transform="translate(1133,792)" d="m0 0h12l-2 1v2l-7 2h-4v2l-3-1h2v-2l-4-1z" fill="#062D2D"/>
<path transform="translate(1226,263)" d="m0 0h2v2l-27 14-3 1v-2l15-8z" fill="#0B3920"/>
<path transform="translate(449,461)" d="m0 0 1 3-9 16-3 5-3 2 1-7h2l1-3h2l1-4z" fill="#5BA610"/>
<path transform="translate(615,232)" d="m0 0 6 2 6 8h-3l-14-8v-1z" fill="#D9F14C"/>
<path transform="translate(853,1065)" d="m0 0 1 2-5 9-6 4-2-1 3-5 5-6z" fill="#D9F75C"/>
<path transform="translate(691,1010)" d="m0 0v3l-9 10-12 10-2-1 8-7h2v-2h2l2-5 7-6z" fill="#E31445"/>
<path transform="translate(646,442)" d="m0 0 6 2 10 5 1 6-7-4-8-6-2-1z" fill="#E31445"/>
<path transform="translate(231,364)" d="m0 0 2 3 1 6v17h-1l-3-18v-7z" fill="#245551"/>
<path transform="translate(1220,227)" d="m0 0 4 1-1 3-7 3-6-1-6 1 4-3 10-3z" fill="#358813"/>
<path transform="translate(679,1136)" d="m0 0 10 1 16 3 8 3-4 2-6-2-24-6z" fill="#D7EDE2"/>
<path transform="translate(598,1049)" d="m0 0 4 1 5 5-1 8-4-4-4-8z" fill="#FB415C"/>
<path transform="translate(1121,707)" d="m0 0 3 1 5 1-3 2-7 2h-8v-2l7-3z" fill="#62AB11"/>
<path transform="translate(1222,426)" d="m0 0 5 1 4 4-1 2-4-2h-5l-1-1-5 9-2 1 2-5 4-7z" fill="#8FAAA4"/>
<path transform="translate(454,195)" d="m0 0h1l1 14-1 5-2-2-2-6v-9z" fill="#052530"/>
<path transform="translate(668,1104)" d="m0 0 11 1 29 1v1l-30 1-10-3z" fill="#08172C"/>
<path transform="translate(740,1096)" d="m0 0 2 1-7 4-12 5-2 1-5-2v-1l17-5z" fill="#08172C"/>
<path transform="translate(1021,735)" d="m0 0h5l-4 4-5 2h-11l3-2z" fill="#ABDE3D"/>
<path transform="translate(1110,398)" d="m0 0 2 1-1 42h-1l-1-39z" fill="#275B4E"/>
<path transform="translate(267,393)" d="m0 0 10 3 12 5 4 5-5-2-12-6-8-3z" fill="#D9F659"/>
<path transform="translate(596,943)" d="m0 0 3 1-4 2-2 4-3 5-1 5-2-1 1-8 4-7z" fill="#990933"/>
<path transform="translate(428,607)" d="m0 0 2 2h-3l3 9-7-1v-8z" fill="#E31345"/>
<path transform="translate(1119,219)" d="m0 0 4 1v1l-9 3-13 8h-2l2-4 16-8z" fill="#204F1F"/>
<path transform="translate(941,759)" d="m0 0h2v2l-8 2-1 3h-11l2-3z" fill="#CDF667"/>
<path transform="translate(424,503)" d="m0 0h2l-1 3h-2v3l-4 2-5 9-5 4 1-4 1-2h2l2-5 4-6z" fill="#388C14"/>
<path transform="translate(1075,405)" d="m0 0 2 4 1 13-2-1-5-10 1-2 3-1z" fill="#8DC915"/>
<path transform="translate(912,370)" d="m0 0h23v1l-18 1-10 2v-1l-9-1v-1z" fill="#9EB5A5"/>
<path transform="translate(312,360)" d="m0 0 2 1 25 1v1l-27 1-9 2 1-3z" fill="#CDED4C"/>
<path transform="translate(456,447)" d="m0 0h1v12l-5 3-2 2v-5l5-9z" fill="#3C9114"/>
<path transform="translate(565,814)" d="m0 0 3 1-8 3-6 1-2-1h-10v-2l12-1h8z" fill="#08172C"/>
<path transform="translate(1e3 359)" d="m0 0 3 1v11l-3-1-3-4 2-6z" fill="#042223"/>
<path transform="translate(1018,314)" d="m0 0h1l1 8-2 10-1 1-1 8h-1l1-21z" fill="#D6F761"/>
<path transform="translate(531,1012)" d="m0 0h1l1 19-2 5h-3v-2l2-1-1-16h1z" fill="#08182C"/>
<path transform="translate(1033,731)" d="m0 0 4 1 3 2-14 4-2-1 1-3z" fill="#7DBE13"/>
<path transform="translate(602,500)" d="m0 0 7 1 5 3 1 4-14-5z" fill="#151B29"/>
<path transform="translate(383,410)" d="m0 0 5 3 7 7-1 2-3-2-4-2-5-5z" fill="#125531"/>
<path transform="translate(1108,402)" d="m0 0h1l1 5v18h-1l-2-10v-12z" fill="#05272D"/>
<path transform="translate(624,371)" d="m0 0 12 1 11 1v1h-29v-1h6z" fill="#1B7114"/>
<path transform="translate(781,341)" d="m0 0 1 2-2 4v5l-8 10-1-3 5-9z" fill="#12641E"/>
<path transform="translate(822,170)" d="m0 0v3l-10 19-2 1 3-9 7-13z" fill="#D9EEBD"/>
<path transform="translate(842,139)" d="m0 0 1 3-8 9-4 4v-4l7-8z" fill="#0F3A1F"/>
<path transform="translate(737,999)" d="m0 0 1 4-5 13-5 10-1-3 4-9z" fill="#9E0937"/>
<path transform="translate(531,817)" d="m0 0h7l1 2-9 2v2h-7l-2-1v-2l10-2z" fill="#09172C"/>
<path transform="translate(949,756)" d="m0 0 3 1-4 2-1 3-10 3h-3l1-3 8-1v-3z" fill="#CAEB49"/>
<path transform="translate(372,748)" d="m0 0 2 1 1 11h1v8l-2 3-2-10z" fill="#F81148"/>
<path transform="translate(1077,334)" d="m0 0 7 7 1-5 2 3-4 4-5-1-4-6h2z" fill="#062B2E"/>
<path transform="translate(809,293)" d="m0 0 2 2-1 5-4 8-2-4 2-7z" fill="#348914"/>
<path transform="translate(945,1067)" d="m0 0 2 1-7 5-1 2-9 1v-2z" fill="#032425"/>
<path transform="translate(1017,774)" d="m0 0 4 1-8 3-9 3-3-1 1-2z" fill="#186F15"/>
<path transform="translate(987,420)" d="m0 0 3 4 2 4-17-4v-1h10v-2z" fill="#F0F9DD"/>
<path transform="translate(910,373)" d="m0 0h11v2l-12 1-8 1h-3l3-3z" fill="#09172C"/>
<path transform="translate(691,552)" d="m0 0h1l-1 9-3 3-1-1-1 4h-2l3-11 4-1z" fill="#08192E"/>
<path transform="translate(689,548)" d="m0 0 1 2-6 18-2-4-1-6 4-2z" fill="#8C0833"/>
<path transform="translate(958,965)" d="m0 0 3 1v5h-2l-1 3-5 2 1-5z" fill="#073528"/>
<path transform="translate(695,922)" d="m0 0h5v3l1 5 1 6-4-4-3-7-4-2z" fill="#E31445"/>
<path transform="translate(997,744)" d="m0 0h2v2l-13 5-1 1h-7l1-2 9-2 1-2z" fill="#83C214"/>
<path transform="translate(1148,660)" d="m0 0 2 1v3l-6 3h-5v-4z" fill="#111A30"/>
<path transform="translate(1051,415)" d="m0 0h2l7 12v3h-5l-1-2 2-1-4-9z" fill="#52A011"/>
<path transform="translate(1013,321)" d="m0 0h1l-1 9-2 10-3 1 2-11z" fill="#D9EEDC"/>
<path transform="translate(804,301)" d="m0 0 1 4-1 8-1 2-4-1 1-4 3-7z" fill="#2E8213"/>
<path transform="translate(1255,250)" d="m0 0h3l-1 5-8 6h-2v-3l6-5v-2z" fill="#85C416"/>
<path transform="translate(867,884)" d="m0 0 2 1-1 4-5 2-3 3h-2l2-4 4-5z" fill="#052233"/>
<path transform="translate(702,817)" d="m0 0 8 2v2l-9 2-2-2v-3z" fill="#0D3527"/>
<path transform="translate(430,816)" d="m0 0 17 1 6 2v1h-8l-14-2z" fill="#052032"/>
<path transform="translate(1127,796)" d="m0 0h4v2h-2v2l-11 1-4-2z" fill="#042623"/>
<path transform="translate(630,781)" d="m0 0h2l-1 5h-2l-1 4-3 3h-1l1-7z" fill="#68082D"/>
<path transform="translate(875,774)" d="m0 0 8 1-2 2-6 2-8-1v-2z" fill="#164224"/>
<path transform="translate(803,472)" d="m0 0 2 1-11 11-5 7-4 2 2-4 14-15z" fill="#FE9276"/>
<path transform="translate(613,410)" d="m0 0 5 1 5 2v2l-11-1-5-1 3-2z" fill="#FAF5E0"/>
<path transform="translate(1045,372)" d="m0 0 5 5 7 10 4 7-1 2-9-14-6-8z" fill="#53A010"/>
<path transform="translate(1071,305)" d="m0 0h1l1 19 3 5-1 2-7-9 2-4z" fill="#D9FF76"/>
<path transform="translate(830,165)" d="m0 0v3l-9 10-3 3 2-6 4-6z" fill="#D9FF76"/>
<path transform="translate(856,942)" d="m0 0h2l-2 5-9 14-1-4 7-10z" fill="#D9F75E"/>
<path transform="translate(900,872)" d="m0 0 1 4-8 13-4 4 2-6z" fill="#8DC915"/>
<path transform="translate(489,502)" d="m0 0h5l-2 2-9 4-7 4 1-4 4-3z" fill="#FDD5BC"/>
<path transform="translate(1058,393)" d="m0 0 4 5 2 4 3 3 4 7-1 3-3-6-4-4-5-8z" fill="#419312"/>
<path transform="translate(1169,324)" d="m0 0 2 1-1 2 4-1-2 5-5 1-2-4z" fill="#3C9215"/>
<path transform="translate(1108,800)" d="m0 0h10l3 2-3 1h-14l1-2z" fill="#073330"/>
<path transform="translate(821,541)" d="m0 0 4 1-2 6h-5l-1-4z" fill="#fff"/>
<path transform="translate(604,504)" d="m0 0 10 3 9 4v2l-9-3-10-4z" fill="#FDD7BE"/>
<path transform="translate(668,396)" d="m0 0 4 2 2 3h3l1 5-4-2-5-2-2-5z" fill="#2E8113"/>
<path transform="translate(626,374)" d="m0 0h23l2 4 2 1-1 3-5-4v-3h-21z" fill="#114A3E"/>
<path transform="translate(828,284)" d="m0 0h8l3 2-16 3-3-1 5-2h3z" fill="#80C013"/>
<path transform="translate(939,1059)" d="m0 0h2l-1 4-5 6h-2v3l-6 4-2-1 5-4 6-7z" fill="#2A7E13"/>
<path transform="translate(977,842)" d="m0 0 3 1-6 12-2-3v-3h2v-5z" fill="#0A3427"/>
<path transform="translate(1057,462)" d="m0 0h5l5 5-5 1-5-2-2-3z" fill="#052234"/>
<path transform="translate(1134,215)" d="m0 0h17v1l-17 2-7 1-1-2z" fill="#184C1E"/>
<path transform="translate(896,993)" d="m0 0h2l-2 5-8 14-2 1 2-6 5-9z" fill="#F5FFBA"/>
<path transform="translate(989,969)" d="m0 0v3l-7 10-2 4h-2l2-5 7-11z" fill="#E5F99D"/>
<path transform="translate(1075,475)" d="m0 0 6 1 8 5v2l-5-1-6-4-3-1z" fill="#F67424"/>
<path transform="translate(639,350)" d="m0 0 3 3 6 10v2h2v3h-3l-6-12-2-3z" fill="#4B9A11"/>
<path transform="translate(845,1078)" d="m0 0 4 1-9 6-8 1 3-2z" fill="#489513"/>
<path transform="translate(838,998)" d="m0 0h1l2 14 2-3 2 1-5 7h-1l-1-7z" fill="#3F9112"/>
<path transform="translate(1169,693)" d="m0 0h5l-1 3-9 3-4 1 1-2h2v-3z" fill="#54A111"/>
<path transform="translate(1214,470)" d="m0 0 5 5 3 5v2l5-2-1 3-3 1-5-4-4-8z" fill="#CCE6DD"/>
<path transform="translate(369,407)" d="m0 0 9 2 2 7-4-2-7-5z" fill="#11621F"/>
<path transform="translate(938,268)" d="m0 0 2 1-2 3-2 4-7 2 4-6h2v-2z" fill="#072D2E"/>
<path transform="translate(820,180)" d="m0 0v3l-8 13h-2l1-4 4-8z" fill="#D9F557"/>
<path transform="translate(509,1021)" d="m0 0 5 2 11 8-3 2-7-5v-2h-2v-2l-4-2z" fill="#08172C"/>
<path transform="translate(894,864)" d="m0 0h8l-1 2-12 4-3-1h2v-2z" fill="#20541E"/>
<path transform="translate(1071,415)" d="m0 0 2 1 2 4 4 1v9l-4-5-4-7z" fill="#5AA510"/>
<path transform="translate(420,407)" d="m0 0h1l1 11 1 2h-2l-1 4-5 4 2-4 1-1z" fill="#4F9D10"/>
<path transform="translate(300,365)" d="m0 0 2 1v3l-4 2h-7l3-4z" fill="#B8E246"/>
<path transform="translate(858,124)" d="m0 0h2l-2 4-8 7-3-1 8-8z" fill="#123D1F"/>
<path transform="translate(635,879)" d="m0 0 4 1-1 2-9 2h-6l1-2z" fill="#2D7F12"/>
<path transform="translate(514,461)" d="m0 0h15v1l-12 2h-8v-2z" fill="#052033"/>
<path transform="translate(420,391)" d="m0 0 3 3-1 9-2 10h-1v-13l2-4z" fill="#64AE11"/>
<path transform="translate(1066,260)" d="m0 0 3 1 1 5-1 2h-4l-2-5z" fill="#082B2C"/>
<path transform="translate(700,217)" d="m0 0 2 4 2 5h-2l-1 3v-3h-2l-2-5 1-3 1 1z" fill="#37605B"/>
<path transform="translate(1137,797)" d="m0 0h3l-1 4-5 8-1-2 3-7-4-1v-1z" fill="#368B14"/>
<path transform="translate(887,634)" d="m0 0 4 1v2l-3 2 3 2-6 2-2-1 2-4z" fill="#D2360D"/>
<path transform="translate(1148,582)" d="m0 0 3 1 1 4v15h-1l-3-17z" fill="#2D112C"/>
<path transform="translate(702,514)" d="m0 0 2 1-2 3-16 1 1-2z" fill="#FF957F"/>
<path transform="translate(1046,465)" d="m0 0 9 1 5 2v2l-8-1-6-2z" fill="#F97C32"/>
<path transform="translate(423,463)" d="m0 0 2 1-8 10-2 2v-7l3-3z" fill="#0C3625"/>
<path transform="translate(363,447)" d="m0 0 4 2 1 5-19-2v-1h16z" fill="#57A310"/>
<path transform="translate(632,361)" d="m0 0 5 2 1 5h-3l-3-2v-2l-3-1z" fill="#53A010"/>
<path transform="translate(784,337)" d="m0 0 2 2-1 5-4 6h-2l1-4z" fill="#2F8313"/>
<path transform="translate(803,209)" d="m0 0h1l-1 8-2 4-2-2-1-5 3 1-1-3z" fill="#0B362D"/>
<path transform="translate(977,934)" d="m0 0 3 1v2l5-1 2 3-4 1h-6z" fill="#114940"/>
<path transform="translate(675,482)" d="m0 0 4 1-1 2-13 1 1-3z" fill="#09172C"/>
<path transform="translate(1223,262)" d="m0 0 4 1-6 4-8 4h-3l5-4z" fill="#04262D"/>
<path transform="translate(1024,209)" d="m0 0 1 4-5 10-2-1 1-4 2-4z" fill="#1A4343"/>
<path transform="translate(757,68)" d="m0 0h5l2 3-6 2-4 2 2-5z" fill="#537872"/>
<path transform="translate(1006,64)" d="m0 0h4l-2 5-2 2-1 4h-2l-1-3z" fill="#59A510"/>
<path transform="translate(880,1058)" d="m0 0h3l-1 5-4 4-2-1 3-7z" fill="#3C9215"/>
<path transform="translate(943,597)" d="m0 0 2 1v4l2 1-6 1-2-5z" fill="#D73E0B"/>
<path transform="translate(442,456)" d="m0 0 1 3-10 9-2-1z" fill="#D9FA67"/>
<path transform="translate(796,321)" d="m0 0h2l-1 4-5 8-1-3v-2-3l3 1z" fill="#277912"/>
<path transform="translate(1252,252)" d="m0 0 2 1-8 7-4-2 4-3z" fill="#D2F597"/>
<path transform="translate(557,249)" d="m0 0 3 1 2 5-1 4-5-5z" fill="#D9F455"/>
<path transform="translate(739,1095)" d="m0 0 3 1-15 6-3-1 10-5z" fill="#810831"/>
<path transform="translate(628,801)" d="m0 0h7l-4 2-2-1-1 2-9 2-1-3z" fill="#09172C"/>
<path transform="translate(301,381)" d="m0 0h2l1 4 3 1-2 1v2h-4l-1-7z" fill="#052335"/>
<path transform="translate(1211,278)" d="m0 0m-2 1h2l-1 3-6 2v2l-6 2 2-4 7-2v-2z" fill="#EEFEA7"/>
<path transform="translate(1151,789)" d="m0 0h9l-1 3v-2l-13 4-3-1h2v-2z" fill="#0B3A37"/>
<path transform="translate(1153,310)" d="m0 0m-3 1 3 1-5 5-4 3-2-1z" fill="#F4FAEA"/>
<path transform="translate(475,286)" d="m0 0 2 1 5 12 1 4-3-3-3-5z" fill="#84C314"/>
<path transform="translate(795,279)" d="m0 0h1v13h2v-2h2l-2 6-3-1z" fill="#186128"/>
<path transform="translate(581,278)" d="m0 0 5 1 2 7-5-2-2-3z" fill="#2E8214"/>
<path transform="translate(1152,212)" d="m0 0h9l6 1v1l-14 1-2-2z" fill="#042224"/>
<path transform="translate(601,1111)" d="m0 0 5 1 4 2 1 3-9-3-3-2z" fill="#194649"/>
<path transform="translate(943,797)" d="m0 0h2l-1 3-13 2 1-2z" fill="#126A15"/>
<path transform="translate(434,549)" d="m0 0 3 1-1 2-11 3v-2z" fill="#FEE5CC"/>
<path transform="translate(558,490)" d="m0 0 4 1v2l-23-1v-1z" fill="#12152C"/>
<path transform="translate(1089,482)" d="m0 0 6 4 3 4-5-1-5-4z" fill="#F06504"/>
<path transform="translate(1038,167)" d="m0 0h2l-2 10-2 4v-11z" fill="#2A5653"/>
<path transform="translate(651,1128)" d="m0 0 10 1 1 3-8-1-4-2z" fill="#164543"/>
<path transform="translate(1038,839)" d="m0 0 2 4-8 8v-3z" fill="#093A2C"/>
<path transform="translate(1070,835)" d="m0 0h5l-2 5-3 3v-4l-2 1z" fill="#C8EA47"/>
<path transform="translate(392,802)" d="m0 0 3 4v3l-9-2 3-2z" fill="#8E0834"/>
<path transform="translate(986,746)" d="m0 0h3l-1 3-3 1h-9l3-2z" fill="#D9FA67"/>
<path transform="translate(1103,712)" d="m0 0h7l-1 2h-2v2l-8 1 3-1z" fill="#65AD11"/>
<path transform="translate(231,364)" d="m0 0 2 3-1 12h-1l-1-14z" fill="#30605B"/>
<path transform="translate(937,1052)" d="m0 0v3l-5 10h-2l2-8 2-1 1-3z" fill="#408419"/>
<path transform="translate(1e3 1031)" d="m0 0 3 1-5 5-6 1 5-5z" fill="#0A3536"/>
<path transform="translate(1013,929)" d="m0 0h2l-2 5-5 7-2-1z" fill="#E5F99D"/>
<path transform="translate(743,548)" d="m0 0h5l-4 10-1-3-1-6z" fill="#FCFFDB"/>
<path transform="translate(694,511)" d="m0 0h6l2 2-3 2h-8z" fill="#052133"/>
<path transform="translate(422,494)" d="m0 0 1 2-5 8-3 6-1-2 6-12z" fill="#6DB511"/>
<path transform="translate(279,394)" d="m0 0 5 1 2 2-1 2-10-3z" fill="#235922"/>
<path transform="translate(857,139)" d="m0 0 2 1-11 11-3-1z" fill="#D9F556"/>
<path transform="translate(953,755)" d="m0 0h6l-4 2h-2v3l-6 1 1-3z" fill="#D1F254"/>
<path transform="translate(1044,729)" d="m0 0 3 1h-2v2l-3 1h-8l4-3z" fill="#A7DC3A"/>
<path transform="translate(1099,713)" d="m0 0 4 1-1 2-4 2h-4l2-4z" fill="#60AA12"/>
<path transform="translate(449,700)" d="m0 0h11l1 3-10-1z" fill="#E71345"/>
<path transform="translate(470,696)" d="m0 0 2 1-8 5-4-1-1-2 9-2z" fill="#F4495E"/>
<path transform="translate(825,268)" d="m0 0 2 1v3l-3 2v5h-2l-1-5z" fill="#7CBE13"/>
<path transform="translate(1257,253)" d="m0 0 1 4-3 7-3-1 1-4z" fill="#429311"/>
<path transform="translate(742,88)" d="m0 0 4 2 1 4h2l-1 4v-3l-3 1-4-6z" fill="#062C2D"/>
</svg>
